<svg width="24" height="24" viewBox="0 0 24 24" fill="none" xmlns="http://www.w3.org/2000/svg">
<circle cx="12" cy="12" r="11" fill="white" stroke="#5C17E6" stroke-width="2"/>
<circle cx="11.9999" cy="12" r="7.90323" fill="white" stroke="#5C17E6" stroke-width="2" stroke-dasharray="10 4"/>
<path fill-rule="evenodd" clip-rule="evenodd" d="M10.0372 9.42133C10.0505 9.4745 10.1037 9.50552 10.1568 9.48779L14.5872 8.30027C14.6936 8.27368 14.6803 8.1186 14.5695 8.10974L9.70491 7.67106C9.63846 7.66663 9.58529 7.72867 9.60301 7.7907L10.0372 9.42133ZM10.4801 12.3236L9.83327 9.9087L9.74909 9.5941L9.40352 8.3091C9.37694 8.21161 9.24402 8.21161 9.21744 8.3091L7.97693 12.9395C7.95921 13.0104 8.02123 13.0769 8.09655 13.0592L10.4136 12.4388C10.4624 12.43 10.4934 12.3768 10.4801 12.3236ZM15.5042 8.38884C15.6416 8.35339 15.7922 8.41543 15.8631 8.53949L17.0194 10.5468C17.0504 10.5999 17.0239 10.6708 16.9618 10.6886L10.9143 12.3015C10.8612 12.3192 10.808 12.2882 10.7947 12.235L10.1744 9.91755C10.1567 9.86438 10.1877 9.8112 10.2409 9.79791L15.5042 8.38884ZM10.613 12.8243C10.5997 12.7711 10.5466 12.7401 10.4934 12.7578L8.17629 13.3782C8.1054 13.3959 8.07882 13.4889 8.13198 13.5377L11.5345 16.9673C11.6054 17.0382 11.7206 16.9717 11.6985 16.8743L10.613 12.8243ZM10.9941 12.6206L16.7625 11.0741C16.8555 11.052 16.922 11.1539 16.8644 11.2292L12.2435 17.0605C12.1948 17.1225 12.0973 17.1004 12.0751 17.025L10.9277 12.7402C10.9099 12.687 10.941 12.6339 10.9941 12.6206Z" fill="#5C17E6"/>
</svg>
