<svg width="19" height="17" viewBox="0 0 19 17" fill="none" xmlns="http://www.w3.org/2000/svg">
<path fill-rule="evenodd" clip-rule="evenodd" d="M17.9889 8.5015L17.8982 8.63115C18.2176 9.24882 18.4001 9.90933 18.4001 10.6C18.4001 13.9392 14.3412 16.6443 9.33341 16.6443C4.32634 16.6443 0.266742 13.9392 0.266742 10.6C0.266742 9.90933 0.449209 9.24882 0.768355 8.63115L0.677689 8.5015C-0.0417515 7.47447 0.207809 6.06075 1.23325 5.34358C2.16304 4.69282 3.40404 4.84197 4.16405 5.63734C5.54377 4.99814 7.20115 4.61167 8.9925 4.56747C9.57186 2.68727 11.2111 1.27355 13.2087 1.01379C13.4202 0.436926 13.9708 0.0221255 14.6222 0.0221255C15.0231 0.0218854 15.4076 0.181022 15.6911 0.464477C15.9745 0.747931 16.1336 1.13245 16.1334 1.53331C16.1333 2.36799 15.4567 3.0446 14.622 3.04473C14.0118 3.04473 13.4902 2.68161 13.2518 2.16209C11.8783 2.37721 10.7178 3.29614 10.1936 4.58379C11.7866 4.68398 13.2572 5.06025 14.5025 5.63734C15.2626 4.84197 16.5036 4.69282 17.4327 5.34358C18.4588 6.06075 18.7083 7.47447 17.9889 8.5015ZM12.4389 8.42C12.2645 8.12408 11.9432 7.94617 11.5998 7.95538C11.0883 7.96911 10.6807 8.38779 10.6807 8.89956C10.6807 9.41134 11.0883 9.83001 11.5998 9.84374C11.9432 9.85296 12.2645 9.67504 12.4389 9.37912C12.6133 9.0832 12.6133 8.71593 12.4389 8.42ZM7.06669 7.95538C7.41006 7.94617 7.73136 8.12408 7.90576 8.42C8.08015 8.71593 8.08015 9.0832 7.90576 9.37912C7.73136 9.67504 7.41006 9.85296 7.06669 9.84374C6.5551 9.83001 6.14752 9.41134 6.14752 8.89956C6.14752 8.38779 6.5551 7.96911 7.06669 7.95538ZM6.35666 11.2564L5.55539 12.0577C7.64027 14.1428 11.0235 14.1446 13.1109 12.0577L12.3096 11.2564C11.4891 12.0772 10.411 12.4872 9.33302 12.4872C8.25499 12.4872 7.17697 12.0772 6.35666 11.2564Z" fill="#9590A3"/>
</svg>
