<svg width="24" height="24" viewBox="0 0 24 24" fill="none" xmlns="http://www.w3.org/2000/svg">
<path d="M11.9998 3.05762C6.99504 3.05762 2.94141 7.11125 2.94141 12.116C2.94141 16.1243 5.53437 19.5099 9.13508 20.7102C9.588 20.7894 9.75785 20.5177 9.75785 20.2799C9.75785 20.0647 9.74652 19.3514 9.74652 18.5928C7.4706 19.0117 6.88181 18.0379 6.70064 17.5284C6.59873 17.268 6.15714 16.464 5.77215 16.2489C5.45511 16.0791 5.00219 15.6601 5.76083 15.6488C6.47418 15.6375 6.98371 16.3055 7.15356 16.5773C7.96881 17.9473 9.27096 17.5624 9.79182 17.3246C9.87108 16.7358 10.1089 16.3395 10.3693 16.113C8.3538 15.8866 6.24772 15.1053 6.24772 11.6404C6.24772 10.6553 6.59873 9.84009 7.1762 9.206C7.08562 8.97954 6.76858 8.05106 7.26679 6.80553C7.26679 6.80553 8.02543 6.56774 9.75785 7.73401C10.4825 7.5302 11.2525 7.42829 12.0224 7.42829C12.7924 7.42829 13.5624 7.5302 14.287 7.73401C16.0195 6.55642 16.7781 6.80553 16.7781 6.80553C17.2763 8.05106 16.9593 8.97954 16.8687 9.206C17.4462 9.84009 17.7972 10.644 17.7972 11.6404C17.7972 15.1166 15.6798 15.8866 13.6643 16.113C13.9926 16.3961 14.2757 16.9396 14.2757 17.7888C14.2757 19.0004 14.2644 19.9742 14.2644 20.2799C14.2644 20.5177 14.4342 20.8007 14.8872 20.7102C16.6855 20.1032 18.2482 18.9476 19.3552 17.4058C20.4623 15.8641 21.0579 14.014 21.0582 12.116C21.0582 7.11125 17.0046 3.05762 11.9998 3.05762Z" fill="white"/>
</svg>
