<svg width="14" height="14" viewBox="0 0 14 14" fill="none" xmlns="http://www.w3.org/2000/svg">
<path d="M7.00002 1.16663C3.78002 1.16663 1.16669 3.77996 1.16669 6.99996C1.16669 10.22 3.78002 12.8333 7.00002 12.8333C10.22 12.8333 12.8334 10.22 12.8334 6.99996C12.8334 3.77996 10.22 1.16663 7.00002 1.16663ZM7.00002 11.6666C4.42752 11.6666 2.33335 9.57246 2.33335 6.99996C2.33335 4.42746 4.42752 2.33329 7.00002 2.33329C9.57252 2.33329 11.6667 4.42746 11.6667 6.99996C11.6667 9.57246 9.57252 11.6666 7.00002 11.6666ZM6.41669 9.33329H7.58335V10.5H6.41669V9.33329ZM7.35585 3.52329C6.15419 3.34829 5.09252 4.08913 4.77169 5.15079C4.66669 5.48913 4.92335 5.83329 5.27919 5.83329H5.39585C5.63502 5.83329 5.82752 5.66413 5.90919 5.44246C6.09585 4.92329 6.65002 4.56746 7.25085 4.69579C7.80502 4.81246 8.21335 5.35496 8.16669 5.92079C8.10835 6.70246 7.22169 6.87163 6.73752 7.60079C6.73752 7.60663 6.73169 7.60663 6.73169 7.61246C6.72585 7.62413 6.72002 7.62996 6.71419 7.64163C6.66169 7.72913 6.60919 7.82829 6.56835 7.93329C6.56252 7.95079 6.55085 7.96246 6.54502 7.97996C6.53919 7.99163 6.53919 8.00329 6.53335 8.02079C6.46335 8.21913 6.41669 8.45829 6.41669 8.74996H7.58335C7.58335 8.50496 7.64752 8.30079 7.74669 8.12579C7.75835 8.10829 7.76419 8.09079 7.77585 8.07329C7.82252 7.99163 7.88085 7.91579 7.93919 7.84579C7.94502 7.83996 7.95085 7.82829 7.95669 7.82246C8.01502 7.75246 8.07919 7.68829 8.14919 7.62413C8.70919 7.09329 9.46752 6.66163 9.31002 5.54746C9.17002 4.53246 8.37085 3.67496 7.35585 3.52329Z" fill="white"/>
</svg>
