<svg width="371" height="635" viewBox="0 0 371 635" fill="none" xmlns="http://www.w3.org/2000/svg">
<g clip-path="url(#clip0_213:6623)">
<g opacity="0.15">
<path opacity="0.15" d="M143.711 524.814C143.711 515.047 135.696 512.884 140.553 509.365C140.725 509.228 151.933 504.216 152.139 504.061C157.374 502.053 162.969 501.16 169.766 505.091L297.328 578.748C311.712 587.056 323.383 609.354 323.383 628.527L311.952 632.802C311.952 642.998 143.711 524.814 143.711 524.814Z" fill="url(#paint0_linear_213:6623)"/>
<path style="mix-blend-mode:screen" opacity="0.6" d="M133.756 529.346C133.756 510.155 145.428 501.332 159.811 509.64L287.39 583.297C301.774 591.605 313.445 613.885 313.445 633.076L133.756 529.346Z" fill="url(#paint1_radial_213:6623)"/>
<path opacity="0.15" d="M131.525 530.565C131.525 511.374 143.196 502.551 157.58 510.859L285.142 584.515C299.543 592.823 311.197 615.121 311.197 634.295L131.525 530.565Z" fill="url(#paint2_linear_213:6623)"/>
<path opacity="0.15" d="M135.078 532.401C135.078 515.579 145.376 507.855 157.923 515.133L284.799 588.412C297.414 595.69 307.627 615.224 307.627 632.046L135.078 532.401Z" fill="url(#paint3_linear_213:6623)"/>
<path opacity="0.8" d="M140.158 536.195C140.158 522.119 148.74 515.596 159.279 521.742L283.46 593.441C294.016 599.535 302.581 615.894 302.581 629.986L140.158 536.195Z" fill="url(#paint4_linear_213:6623)"/>
</g>
<path d="M297.328 579.108L169.8 505.452C155.4 497.144 143.745 474.863 143.745 455.672V115.918C143.745 106.168 135.73 104.005 140.587 100.469C140.759 100.332 151.967 95.3195 152.173 95.165C157.408 93.1567 163.003 92.2641 169.8 96.1778L297.363 169.834C311.746 178.142 323.417 200.44 323.417 219.614V559.419C323.417 569.616 320.122 576.877 314.836 580.207C314.527 580.396 301.104 586.815 300.692 586.935C296.041 588.48 303.679 582.747 297.328 579.108Z" fill="url(#paint5_linear_213:6623)"/>
<path style="mix-blend-mode:color-dodge" d="M296.144 170.263L168.582 96.6755C161.716 92.7618 289.107 172.684 289.107 172.684C303.49 180.992 315.162 203.29 315.162 222.463C315.162 222.463 322.199 570.045 322.199 559.849V220.06C322.199 200.869 310.545 178.572 296.144 170.263Z" fill="url(#paint6_radial_213:6623)"/>
<path style="mix-blend-mode:screen" opacity="0.6" d="M287.425 583.64L159.845 509.983C145.462 501.675 133.79 479.395 133.79 460.204V120.45C133.79 101.259 145.462 92.4357 159.845 100.744L287.425 174.4C301.808 182.708 313.48 205.006 313.48 224.18V563.951C313.48 583.125 301.808 591.948 287.425 583.64Z" fill="url(#paint7_radial_213:6623)"/>
<path d="M285.142 584.876L157.58 511.219C143.196 502.911 131.525 480.613 131.525 461.44V121.668C131.525 102.495 143.196 93.6717 157.58 101.98L285.142 175.636C299.543 183.944 311.197 206.225 311.197 225.416V565.17C311.197 584.361 299.543 593.184 285.142 584.876Z" fill="url(#paint8_linear_213:6623)"/>
<path d="M135.078 463.688V123.522C135.078 106.7 145.376 98.9586 157.923 106.254L284.799 179.516C297.414 186.794 307.627 206.345 307.627 223.167V563.333C307.627 580.155 297.414 587.88 284.799 580.602L157.906 507.323C145.308 500.062 135.078 480.51 135.078 463.688Z" fill="url(#paint9_linear_213:6623)"/>
<path d="M140.158 465.731V127.316C140.158 113.223 148.74 106.717 159.279 112.862L283.46 184.562C294.016 190.656 302.581 207.015 302.581 221.09V559.54C302.581 573.615 293.999 580.138 283.46 573.993L159.279 502.293C148.723 496.199 140.158 479.841 140.158 465.731Z" fill="url(#paint10_linear_213:6623)"/>
<path d="M160.721 116.605C150.766 110.854 142.699 115.455 142.699 126.904V469.164C142.699 480.579 150.766 494.5 160.721 500.233L282.018 570.285C291.973 576.036 300.04 571.435 300.04 559.986V217.726C300.04 206.294 291.973 192.39 282.018 186.639L160.721 116.605Z" fill="url(#paint11_linear_213:6623)"/>
<path d="M314.63 304.033V281.1C314.652 279.607 315.024 278.14 315.716 276.817C316.407 275.493 317.399 274.35 318.612 273.479C320.809 272.209 322.594 273.565 322.594 276.5V299.433C322.571 300.924 322.199 302.388 321.508 303.709C320.816 305.03 319.824 306.17 318.612 307.037C316.415 308.307 314.63 306.968 314.63 304.033Z" fill="url(#paint12_linear_213:6623)"/>
<path d="M317.033 306.66C315.9 306.66 315.488 305.235 315.488 304.033V281.1C315.515 279.76 315.849 278.444 316.465 277.254C317.081 276.063 317.962 275.03 319.041 274.234C319.386 274.015 319.782 273.891 320.191 273.874C321.323 273.874 321.735 275.281 321.735 276.5V299.433C321.708 300.773 321.374 302.089 320.758 303.279C320.142 304.47 319.261 305.503 318.183 306.299C317.837 306.518 317.441 306.642 317.033 306.66Z" fill="url(#paint13_linear_213:6623)"/>
<path style="mix-blend-mode:color-dodge" d="M316.672 304.617V281.684C316.696 280.345 317.027 279.029 317.64 277.839C318.253 276.648 319.132 275.615 320.208 274.818C320.525 274.637 320.875 274.521 321.238 274.474C321.13 274.292 320.977 274.141 320.794 274.035C320.61 273.93 320.402 273.874 320.191 273.874C319.782 273.891 319.386 274.015 319.041 274.234C317.962 275.03 317.081 276.063 316.465 277.254C315.849 278.444 315.515 279.76 315.488 281.1V304.033C315.488 305.235 315.9 306.66 317.033 306.66H317.153C316.809 306.035 316.643 305.329 316.672 304.617Z" fill="url(#paint14_radial_213:6623)"/>
<g style="mix-blend-mode:multiply">
<path d="M282.018 186.639L160.721 116.605C150.766 110.854 142.699 115.455 142.699 126.904V469.164C142.699 480.579 150.766 494.5 160.721 500.233L282.018 570.285C291.973 576.036 300.04 571.435 300.04 559.986V217.726C300.04 206.294 291.973 192.39 282.018 186.639ZM298.53 559.969C298.696 562.971 297.843 565.941 296.11 568.397C295.399 569.287 294.49 570 293.457 570.479C292.423 570.959 291.293 571.192 290.154 571.161C287.568 571.046 285.055 570.266 282.859 568.895L161.545 498.843C152.053 493.367 144.381 479.961 144.381 469.13V126.869C144.381 120.003 147.59 115.695 152.74 115.695C155.332 115.803 157.852 116.584 160.051 117.961L281.349 187.995C290.858 193.488 298.599 206.877 298.599 217.726L298.53 559.969Z" fill="#BCBEC0"/>
</g>
<path style="mix-blend-mode:multiply" opacity="0.5" d="M206.36 424.62C212.529 428.603 217.187 434.537 219.593 441.476C222.099 437.442 227.076 436.584 232.826 439.914C241.082 444.669 247.776 456.221 247.776 465.662C247.776 482.982 219.593 488.114 219.593 488.114C219.593 488.114 191.41 450.437 191.41 433.185C191.41 423.676 198.104 419.865 206.36 424.62Z" fill="url(#paint15_linear_213:6623)"/>
<path d="M203.699 426.388C209.868 430.372 214.527 436.305 216.933 443.244C219.439 439.21 224.416 438.352 230.183 441.682C238.422 446.454 245.116 457.989 245.116 467.43C245.116 484.733 216.933 489.865 216.933 489.865C216.933 489.865 188.767 452.187 188.767 434.936C188.767 425.444 195.443 421.633 203.699 426.388Z" fill="url(#paint16_linear_213:6623)"/>
<g style="mix-blend-mode:color-dodge">
<path style="mix-blend-mode:color-dodge" d="M201.485 427.504C207.653 431.481 212.312 437.409 214.718 444.343C215.217 443.572 215.844 442.893 216.572 442.334C214.106 435.774 209.592 430.182 203.699 426.388C199.202 423.796 195.117 423.761 192.423 425.804C193.969 425.453 195.571 425.423 197.13 425.715C198.689 426.007 200.171 426.616 201.485 427.504Z" fill="url(#paint17_radial_213:6623)"/>
<path style="mix-blend-mode:color-dodge" d="M230.183 441.699C225.669 439.09 221.601 439.09 218.924 441.116C220.469 440.775 222.068 440.751 223.623 441.046C225.177 441.341 226.656 441.949 227.969 442.832C236.208 447.604 242.902 459.139 242.902 468.58C242.902 476.631 236.826 482.038 230.303 485.522C237.581 482.089 245.116 476.425 245.116 467.482C245.116 457.989 238.456 446.454 230.183 441.699Z" fill="url(#paint18_radial_213:6623)"/>
</g>
</g>
<g clip-path="url(#clip1_213:6623)">
<path d="M148.52 605.225H74.1183V608.36C74.1183 608.454 74.1183 609.149 74.1183 609.243C74.1183 621.215 90.775 630.913 111.319 630.913C131.863 630.913 148.52 621.215 148.52 609.22C148.52 609.125 148.52 608.43 148.52 608.336V605.225Z" fill="url(#paint19_linear_213:6623)"/>
<path d="M111.319 624.032C131.865 624.032 148.52 615.68 148.52 605.378C148.52 595.076 131.865 586.725 111.319 586.725C90.7737 586.725 74.1183 595.076 74.1183 605.378C74.1183 615.68 90.7737 624.032 111.319 624.032Z" fill="url(#paint20_linear_213:6623)"/>
<path style="mix-blend-mode:color-dodge" d="M111.319 623.572C91.2932 623.572 74.9898 615.182 74.1535 605.249C74.1535 605.52 74.1535 605.779 74.1535 606.05C74.1535 616.349 90.8103 624.691 111.354 624.691C131.899 624.691 148.52 616.349 148.52 606.05C148.52 605.779 148.52 605.52 148.52 605.249C147.648 615.182 131.333 623.572 111.319 623.572Z" fill="url(#paint21_radial_213:6623)"/>
<path d="M127.658 604.188C129.495 605.249 129.495 606.957 127.658 608.006C126.632 608.526 125.498 608.797 124.348 608.797C123.198 608.797 122.064 608.526 121.037 608.006C119.212 606.946 119.2 605.237 121.037 604.188C122.064 603.668 123.198 603.398 124.348 603.398C125.498 603.398 126.632 603.668 127.658 604.188Z" fill="#25054D"/>
<path d="M114.24 596.435C116.066 597.495 116.078 599.204 114.24 600.253C113.215 600.775 112.081 601.047 110.93 601.047C109.78 601.047 108.645 600.775 107.62 600.253C105.782 599.204 105.782 597.483 107.62 596.435C108.646 595.915 109.78 595.644 110.93 595.644C112.08 595.644 113.214 595.915 114.24 596.435Z" fill="#25054D"/>
<path d="M96.6886 614.251C91.2109 611.093 89.6206 606.227 92.7069 602.161L96.9477 603.246C94.5917 606.321 95.7697 609.986 99.9516 612.366C104.133 614.746 110.707 615.489 116.114 614.004L118.116 616.431C110.942 618.387 102.331 617.468 96.6886 614.251Z" fill="#25054D"/>
</g>
<g clip-path="url(#clip2_213:6623)">
<path d="M161.361 168.382C161.361 182.582 156.358 192.657 148.479 197.532C148.229 197.682 134.847 205.981 134.596 206.106C126.317 210.756 131.62 200.232 119.013 192.957C93.6497 178.307 73.0888 142.957 73.0888 113.783C73.0888 99.4077 59.7818 99.2827 67.9361 94.4828L83.3693 85.6579C91.6486 81.1829 102.955 82.0079 115.436 89.2078C140.8 103.858 161.361 139.207 161.361 168.382Z" fill="url(#paint22_linear_213:6623)"/>
<path d="M133.071 206.7C150.889 196.289 150.706 162.843 132.663 131.995C114.62 101.147 85.5487 84.5786 67.7311 94.9889C49.9134 105.399 50.0963 138.846 68.1394 169.694C86.1826 200.542 115.254 217.11 133.071 206.7Z" fill="#FCF1E0"/>
<path style="mix-blend-mode:color-dodge" d="M102.605 97.0578C90.4481 90.0578 79.4172 89.1079 71.1878 93.2078C78.8419 91.0579 88.3469 92.6578 98.7024 98.6077C124.066 113.233 144.627 148.607 144.627 177.782C144.627 192.782 139.049 203.331 130.119 207.781C141.325 204.631 148.579 193.482 148.579 176.207C148.529 147.132 127.968 111.708 102.605 97.0578Z" fill="url(#paint23_radial_213:6623)"/>
<path d="M124.866 131.982L102.555 139.907L106.682 130.357L124.866 131.982Z" fill="#E2761B" stroke="#E2761B" stroke-width="0.11" stroke-linecap="round" stroke-linejoin="round"/>
<path d="M73.3639 104.258L95.5007 136.307L91.5736 122.232L73.3639 104.258Z" fill="#E4761B" stroke="#E4761B" stroke-width="0.11" stroke-linecap="round" stroke-linejoin="round"/>
<path d="M116.837 173.907L110.909 181.657L123.616 192.707L127.268 179.757L116.837 173.907Z" fill="#E4761B" stroke="#E4761B" stroke-width="0.11" stroke-linecap="round" stroke-linejoin="round"/>
<path d="M71.0128 149.457L74.6397 166.357L87.3465 168.982L81.4183 154.832L71.0128 149.457Z" fill="#E4761B" stroke="#E4761B" stroke-width="0.11" stroke-linecap="round" stroke-linejoin="round"/>
<path d="M86.646 139.107L83.0941 143.657L95.7258 151.132L95.2756 134.557L86.646 139.107Z" fill="#E4761B" stroke="#E4761B" stroke-width="0.11" stroke-linecap="round" stroke-linejoin="round"/>
<path d="M111.609 152.557L102.855 138.457L102.555 154.807L115.161 160.932L111.609 152.557Z" fill="#E4761B" stroke="#E4761B" stroke-width="0.11" stroke-linecap="round" stroke-linejoin="round"/>
<path d="M87.3463 168.982L94.9253 168.607L88.3968 158.932L87.3463 168.982Z" fill="#E4761B" stroke="#E4761B" stroke-width="0.11" stroke-linecap="round" stroke-linejoin="round"/>
<path d="M103.305 173.107L110.909 181.657L109.858 170.482L103.305 173.107Z" fill="#E4761B" stroke="#E4761B" stroke-width="0.11" stroke-linecap="round" stroke-linejoin="round"/>
<path d="M110.909 181.657L103.305 173.107L103.905 179.407L103.83 181.882L110.909 181.657Z" fill="#D7C1B3" stroke="#D7C1B3" stroke-width="0.11" stroke-linecap="round" stroke-linejoin="round"/>
<path d="M87.3463 168.982L94.425 176.807L94.375 174.282L94.9253 168.607L87.3463 168.982Z" fill="#D7C1B3" stroke="#D7C1B3" stroke-width="0.11" stroke-linecap="round" stroke-linejoin="round"/>
<path d="M94.5253 158.282L88.1969 152.657L92.6743 152.607L94.5253 158.282Z" fill="#233447" stroke="#233447" stroke-width="0.11" stroke-linecap="round" stroke-linejoin="round"/>
<path d="M103.705 163.232L105.556 159.532L110.059 164.407L103.705 163.232Z" fill="#233447" stroke="#233447" stroke-width="0.11" stroke-linecap="round" stroke-linejoin="round"/>
<path d="M87.3464 168.982L88.422 158.607L81.4183 155.057L87.3464 168.982Z" fill="#CD6116" stroke="#CD6116" stroke-width="0.11" stroke-linecap="round" stroke-linejoin="round"/>
<path d="M109.834 170.107L110.909 181.657L116.837 174.132L109.834 170.107Z" fill="#CD6116" stroke="#CD6116" stroke-width="0.11" stroke-linecap="round" stroke-linejoin="round"/>
<path d="M115.161 160.932L102.555 154.807L103.73 163.232L105.581 159.557L110.084 164.407L115.161 160.932Z" fill="#CD6116" stroke="#CD6116" stroke-width="0.11" stroke-linecap="round" stroke-linejoin="round"/>
<path d="M88.1969 152.657L92.6992 152.607L94.5252 158.282L95.7258 151.132L83.0941 143.657L88.1969 152.657Z" fill="#CD6116" stroke="#CD6116" stroke-width="0.11" stroke-linecap="round" stroke-linejoin="round"/>
<path d="M83.0941 143.657L88.3969 158.932L88.1968 152.657L83.0941 143.657Z" fill="#E4751F" stroke="#E4751F" stroke-width="0.11" stroke-linecap="round" stroke-linejoin="round"/>
<path d="M110.083 164.407L109.858 170.482L115.161 160.932L110.083 164.407Z" fill="#E4751F" stroke="#E4751F" stroke-width="0.11" stroke-linecap="round" stroke-linejoin="round"/>
<path d="M95.7257 151.132L94.5251 158.282L96.0009 168.307L96.3511 156.357L95.7257 151.132Z" fill="#E4751F" stroke="#E4751F" stroke-width="0.11" stroke-linecap="round" stroke-linejoin="round"/>
<path d="M102.555 154.807L101.954 159.357L102.229 171.632L103.73 163.232L102.555 154.807Z" fill="#E4751F" stroke="#E4751F" stroke-width="0.11" stroke-linecap="round" stroke-linejoin="round"/>
<path d="M103.73 163.232L102.229 171.632L103.305 173.107L109.858 170.482L110.084 164.407L103.73 163.232Z" fill="#F6851B" stroke="#F6851B" stroke-width="0.11" stroke-linecap="round" stroke-linejoin="round"/>
<path d="M88.1969 152.657L88.397 158.932L94.9254 168.607L96.001 168.307L94.5252 158.282L88.1969 152.657Z" fill="#F6851B" stroke="#F6851B" stroke-width="0.11" stroke-linecap="round" stroke-linejoin="round"/>
<path d="M103.83 181.882L103.905 179.407L103.355 178.507L94.9003 173.957L94.375 174.282L94.425 176.807L87.3463 168.982L89.8226 172.732L94.8252 179.607L103.405 184.232L108.432 182.757L110.909 181.657L103.83 181.882Z" fill="#C0AD9E" stroke="#C0AD9E" stroke-width="0.11" stroke-linecap="round" stroke-linejoin="round"/>
<path d="M103.305 173.107L102.229 171.632L96.001 168.307L94.9255 168.607L94.3752 174.282L94.9005 173.957L103.355 178.507L103.905 179.407L103.305 173.107Z" fill="#161616" stroke="#161616" stroke-width="0.11" stroke-linecap="round" stroke-linejoin="round"/>
<path d="M125.817 153.732L127.718 143.732L124.866 131.982L103.305 139.632L111.609 152.557L123.316 163.007L125.942 160.757L124.816 159.182L126.592 158.182L125.217 156.132L127.017 155.457L125.817 153.732Z" fill="#763D16" stroke="#763D16" stroke-width="0.11" stroke-linecap="round" stroke-linejoin="round"/>
<path d="M70.5375 112.958L72.4385 125.007L71.2378 125.432L73.0138 128.032L71.6631 128.582L73.439 131.532L72.3384 131.907L74.9148 136.932L86.646 139.107L94.9254 135.132L73.364 104.258L70.5375 112.958Z" fill="#763D16" stroke="#763D16" stroke-width="0.11" stroke-linecap="round" stroke-linejoin="round"/>
<path d="M123.315 163.007L111.609 152.557L115.161 160.932L109.858 170.482L116.837 174.132L127.268 179.757L123.315 163.007Z" fill="#F6851B" stroke="#F6851B" stroke-width="0.11" stroke-linecap="round" stroke-linejoin="round"/>
<path d="M86.6461 139.107L74.9149 136.932L71.0128 149.457L81.4183 155.057L88.397 158.932L83.0942 143.657L86.6461 139.107Z" fill="#F6851B" stroke="#F6851B" stroke-width="0.11" stroke-linecap="round" stroke-linejoin="round"/>
<path d="M102.555 154.807L103.305 139.632L106.707 130.382L91.5737 122.232L94.9255 135.132L95.7259 151.132L95.976 156.182L96.001 168.307L102.229 171.632L102.279 159.557L102.555 154.807Z" fill="#F6851B" stroke="#F6851B" stroke-width="0.11" stroke-linecap="round" stroke-linejoin="round"/>
</g>
<g clip-path="url(#clip3_213:6623)">
<path d="M76.6199 387.254V398.643L176.09 343.146V331.102L76.6199 387.254Z" fill="url(#paint24_linear_213:6623)"/>
<path d="M76.7055 387.254V398.644L0.849457 354.849V342.776L76.7055 387.254Z" fill="url(#paint25_linear_213:6623)"/>
<path d="M0.849457 342.776L76.7055 387.254L176.09 331.102L100.063 286.852L0.849457 342.776Z" fill="url(#paint26_linear_213:6623)"/>
<path style="mix-blend-mode:color-dodge" d="M176.09 331.102L77.0758 385.033L0.849457 342.776L76.7055 387.254L176.09 331.102Z" fill="url(#paint27_radial_213:6623)"/>
<path d="M118.436 310.742C116.857 309.955 115.116 309.545 113.352 309.545C111.587 309.545 109.846 309.955 108.267 310.742L88.0709 322.417L77.7024 316.437C75.3131 315.231 72.6739 314.602 69.9972 314.602C67.3205 314.602 64.6811 315.231 62.2919 316.437C60.9531 317.206 60.9531 318.487 62.2919 319.285L71.0369 324.325C72.1267 324.831 73.0757 325.597 73.8008 326.555C74.5258 327.513 75.0048 328.634 75.1957 329.82L75.9932 341.922L98.3256 354.793C99.7513 355.515 101.327 355.892 102.926 355.892C104.525 355.892 106.101 355.515 107.526 354.793L118.465 348.471L132.081 340.612L139.373 336.398C142.221 334.832 142.364 332.269 139.772 330.703C138.38 329.873 136.804 329.403 135.185 329.336C137.835 327.713 137.778 325.15 135.015 323.641C132.833 322.512 130.341 322.132 127.922 322.559C130.77 320.965 130.913 318.316 128.207 316.665C125.579 315.277 122.512 314.97 119.661 315.811C121.171 314.045 120.715 312.052 118.436 310.742Z" fill="white"/>
<path d="M95.5058 361.854L85.0802 367.862C83.9085 368.517 82.599 368.886 81.2579 368.941C79.9167 368.995 78.5816 368.733 77.3607 368.176L51.7241 353.369C49.7301 352.23 49.9865 350.237 52.2653 348.927L62.6909 342.919C63.8603 342.26 65.1685 341.885 66.5097 341.826C67.8509 341.766 69.1872 342.024 70.4103 342.577L96.047 357.412C98.0409 358.551 97.7846 360.544 95.5058 361.854Z" fill="url(#paint28_linear_213:6623)"/>
<path d="M89.2388 357.811C89.2388 359.149 87.3873 360.231 85.08 360.231C82.7727 360.231 80.8927 359.149 80.8927 357.811C80.8927 356.473 82.7442 355.39 85.0515 355.39C87.3588 355.39 89.2388 356.473 89.2388 357.811Z" fill="white"/>
</g>
<g clip-path="url(#clip4_213:6623)">
<path d="M234.308 216.726L325.6 163.721C336.47 157.312 345.288 164.106 345.288 178.591V192.883C345.288 207.336 336.47 224.16 325.6 230.441L291.546 250.086L276.475 294.437L261.436 267.487L234.308 283.51C223.438 289.919 214.62 283.093 214.62 268.64V254.348C214.62 239.799 223.438 222.975 234.308 216.726Z" fill="url(#paint29_linear_213:6623)"/>
<path d="M255.312 271.011L261.436 267.486L276.475 294.405L264.418 287.291L255.312 271.011Z" fill="url(#paint30_linear_213:6623)"/>
<path d="M224.143 210.765L315.467 157.793C317.235 156.553 319.288 155.78 321.435 155.545C323.582 155.309 325.753 155.62 327.748 156.447L338.49 162.856C336.469 161.836 334.208 161.383 331.949 161.547C329.69 161.71 327.517 162.484 325.664 163.785L234.372 216.79C223.502 223.199 214.684 239.863 214.684 254.348V268.64C214.684 275.658 216.768 280.85 220.167 283.574L214.171 279.632C211.083 278.058 208.525 275.613 206.814 272.599C205.104 269.586 204.317 266.136 204.551 262.68V248.259C204.487 233.87 213.305 217.046 224.143 210.765Z" fill="url(#paint31_linear_213:6623)"/>
<path style="mix-blend-mode:color-dodge" d="M233.186 215.796L324.51 162.792C329.897 159.587 334.803 159.78 338.33 162.407C336.417 161.813 334.394 161.657 332.412 161.951C330.431 162.245 328.541 162.982 326.883 164.106L235.591 217.078C224.721 223.487 215.902 240.183 215.902 254.668V268.929C215.902 276.235 218.147 281.523 221.738 284.183C216.768 282.292 213.53 276.428 213.53 267.647V253.354C213.53 238.902 222.316 222.077 233.186 215.796Z" fill="url(#paint32_radial_213:6623)"/>
<path style="mix-blend-mode:color-dodge" d="M207.052 223.006C199.196 235.12 198.459 248.643 205.353 253.002C212.247 257.36 224.176 251.239 232 239.094C239.824 226.948 240.593 213.457 233.699 209.098C226.805 204.74 214.844 210.861 207.052 223.006Z" fill="url(#paint33_radial_213:6623)"/>
<path d="M256.786 252.681L277.661 241.177V245.439L256.786 256.943V252.681Z" fill="white"/>
<path d="M288.179 203.683L267.4 215.187V210.925L288.179 199.421V203.683Z" fill="white"/>
<path d="M287.409 226.371V230.633L264.963 242.939V238.677L287.409 226.371Z" fill="white"/>
<path d="M264.13 226.115V221.853L272.274 217.174V221.404L264.13 226.115Z" fill="white"/>
<path d="M251.849 219.77V224.032L238.605 231.531V227.269L251.849 219.77Z" fill="white"/>
<path d="M294.336 209.195L276.539 218.969V214.707L294.336 204.933V209.195Z" fill="white"/>
<path d="M271.569 230.441V226.179L284.748 219.129V223.359L271.569 230.441Z" fill="white"/>
<path d="M281.926 243.003V238.741L285.582 236.626V240.888L281.926 243.003Z" fill="white"/>
<path d="M267.336 228.614V232.877L253.612 240.664V236.402L267.336 228.614Z" fill="white"/>
<path d="M291.674 228.198V223.936L296.516 221.116V225.378L291.674 228.198Z" fill="white"/>
<path d="M259.961 224.288V228.55L242.742 238.164V233.902L259.961 224.288Z" fill="white"/>
<path d="M252.554 259.379L245.692 263.288V259.026L252.554 255.117V259.379Z" fill="white"/>
<path d="M263.2 217.591L256.081 221.629V217.367L263.2 213.329V217.591Z" fill="white"/>
<path d="M308.092 196.985L326.498 186.282V190.544L308.092 201.215V196.985Z" fill="white"/>
<path d="M312.357 203.362L319.155 199.421V203.651L312.357 207.624V203.362Z" fill="white"/>
<path d="M300.781 218.68L332.526 200.478V204.74L300.781 222.943V218.68Z" fill="white"/>
<path d="M289.013 216.693L308.156 205.798V210.06L289.013 220.955V216.693Z" fill="white"/>
<path d="M289.846 238.453V234.191L305.078 225.474V229.704L289.846 238.453Z" fill="white"/>
<path d="M303.891 203.651L298.6 206.727V202.465L303.891 199.388V203.651Z" fill="white"/>
<path d="M249.347 243.1L227.831 255.341V251.079L249.347 238.837V243.1Z" fill="white"/>
<path d="M260.699 245.375L237.002 258.93V254.668L260.699 241.145V245.375Z" fill="white"/>
</g>
<g clip-path="url(#clip5_213:6623)">
<path d="M78.2466 458.712L75.4143 453.648L67.6102 460.858L56.7903 464.571C56.3121 464.775 55.7964 464.877 55.2766 464.87C54.7568 464.863 54.2445 464.747 53.7728 464.53L43.3281 457.948C41.5929 456.885 37.7535 458.544 36.7999 460.846L31.4422 474.436C30.9248 475.486 30.0819 476.343 29.0388 476.878L11.7877 486.321L11.6946 486.373L6.27807 484.848L9.24895 490.161C9.38223 490.43 9.58589 490.658 9.8384 490.821C10.0909 490.984 10.3829 491.076 10.6836 491.087L25.4405 493.285C25.8483 493.287 26.2384 493.451 26.5258 493.74C26.8131 494.028 26.9745 494.419 26.9747 494.826L26.8243 501.844L24.0453 502.849L26.791 507.759C26.8515 507.94 26.9455 508.108 27.0681 508.254L27.1114 508.332C28.0852 509.271 30.617 508.953 32.5248 507.338L47.0258 495.162C47.9835 494.355 49.1539 493.842 50.396 493.684L67.5102 491.9C70.3614 491.607 73.0816 488.785 72.1689 487.262L66.3704 477.512C66.0066 476.862 66.1723 475.956 66.8869 475.048L77.6756 461.553C78.6916 460.273 78.7432 459.309 78.2466 458.712Z" fill="url(#paint34_linear_213:6623)"/>
<path d="M53.8713 459.351L71.8882 453.098C74.9123 452.058 76.6714 453.819 74.8649 456.09L64.0762 469.585C63.3529 470.477 63.1562 471.401 63.5597 472.049L69.3582 481.799C70.2763 483.441 67.5853 486.206 64.6994 486.437L47.5766 488.205C46.3384 488.378 45.1733 488.895 44.2151 489.699L29.7141 501.874C27.2772 503.928 23.8297 503.884 23.8705 501.808L24.1365 489.46C24.1357 489.05 23.9735 488.656 23.6849 488.365C23.3962 488.074 23.0042 487.908 22.5936 487.903L7.84539 485.72C5.36232 485.36 5.97491 482.557 8.87018 480.959L26.1213 471.515C27.1747 470.994 28.0216 470.134 28.5246 469.073L33.891 455.499C34.7825 453.232 38.6046 451.542 40.4193 452.601L50.8552 459.167C51.3155 459.411 51.8227 459.553 52.3428 459.585C52.863 459.616 53.3841 459.537 53.8713 459.351Z" fill="url(#paint35_linear_213:6623)"/>
<g style="mix-blend-mode:color-dodge">
<path style="mix-blend-mode:color-dodge" d="M23.7711 488.77C23.7596 488.364 23.5922 487.978 23.3037 487.693C23.0152 487.408 22.6276 487.244 22.2214 487.237L7.47311 485.054C7.17876 485.017 6.8954 484.919 6.64052 484.768C6.63972 484.965 6.67824 485.161 6.75387 485.343C6.82949 485.526 6.94071 485.692 7.08104 485.831C7.22138 485.97 7.38805 486.08 7.57134 486.154C7.75463 486.228 7.95087 486.265 8.14871 486.262L22.897 488.445C23.2081 488.49 23.5061 488.601 23.7711 488.77Z" fill="url(#paint36_radial_213:6623)"/>
<path style="mix-blend-mode:color-dodge" d="M74.4976 455.36L63.7089 468.855C62.9856 469.747 62.7889 470.671 63.1924 471.319L63.7727 472.357C63.6446 471.952 63.6292 471.52 63.7281 471.106C63.827 470.693 64.0366 470.314 64.3343 470.01L75.1231 456.515C76.139 455.235 75.985 454.121 75.1484 453.573C75.1404 454.225 74.9109 454.855 74.4976 455.36Z" fill="url(#paint37_radial_213:6623)"/>
<path style="mix-blend-mode:color-dodge" d="M64.3359 485.787L47.2131 487.555C45.9724 487.718 44.805 488.237 43.8515 489.048L29.3505 501.224C28.6878 501.882 27.8533 502.341 26.9425 502.549C26.0316 502.756 25.0813 502.703 24.1999 502.396C24.197 504.431 27.6394 504.539 30.0261 502.432L44.5271 490.256C45.4806 489.445 46.648 488.927 47.8887 488.763L65.0115 486.995C67.8627 486.702 70.5829 483.879 69.6702 482.356L69.0726 481.288C69.7334 482.87 67.1077 485.497 64.3359 485.787Z" fill="url(#paint38_radial_213:6623)"/>
</g>
</g>
<g clip-path="url(#clip6_213:6623)">
<path d="M325.91 49.695L327.51 46.8342L331.918 50.9073L338.03 53.0043C338.3 53.1198 338.591 53.1775 338.885 53.1735C339.178 53.1695 339.468 53.1041 339.734 52.9813L345.634 49.2633C346.614 48.663 348.783 49.6001 349.322 50.9005L352.348 58.5765C352.64 59.1701 353.116 59.6539 353.706 59.9559L363.45 65.2904L363.503 65.3198L366.562 64.4582L364.884 67.459C364.809 67.6111 364.694 67.74 364.551 67.832C364.409 67.9241 364.244 67.9759 364.074 67.9821L355.738 69.2238C355.508 69.2252 355.287 69.3175 355.125 69.4806C354.963 69.6436 354.872 69.8643 354.872 70.0944L354.956 74.0582L356.526 74.626L354.975 77.3994C354.941 77.5017 354.888 77.5966 354.819 77.6793L354.794 77.7231C354.244 78.2539 352.814 78.0743 351.736 77.1616L343.545 70.284C343.004 69.8282 342.343 69.5382 341.642 69.4491L331.975 68.4417C330.364 68.2761 328.827 66.6818 329.343 65.8216L332.618 60.3145C332.824 59.947 332.73 59.4353 332.327 58.9225L326.233 51.2995C325.659 50.5766 325.629 50.032 325.91 49.695Z" fill="url(#paint39_linear_213:6623)"/>
<path d="M339.679 50.0549L329.502 46.5229C327.793 45.9351 326.8 46.9299 327.82 48.2126L333.914 55.8355C334.323 56.3396 334.434 56.8612 334.206 57.2276L330.931 62.7347C330.412 63.6621 331.932 65.2242 333.562 65.3548L343.234 66.3534C343.934 66.4508 344.592 66.7433 345.133 67.1971L353.324 74.0747C354.701 75.2349 356.648 75.2099 356.625 74.037L356.475 67.0621C356.475 66.8304 356.567 66.6083 356.73 66.4438C356.893 66.2793 357.114 66.1855 357.346 66.1828L365.677 64.9497C367.079 64.7464 366.733 63.1632 365.098 62.2602L355.354 56.9257C354.759 56.6317 354.28 56.1456 353.996 55.5463L350.965 47.8791C350.461 46.5983 348.302 45.6436 347.277 46.2419L341.382 49.9511C341.122 50.0885 340.836 50.1689 340.542 50.1868C340.248 50.2047 339.954 50.1598 339.679 50.0549Z" fill="url(#paint40_linear_213:6623)"/>
<g style="mix-blend-mode:color-dodge">
<path style="mix-blend-mode:color-dodge" d="M356.681 66.6732C356.688 66.444 356.782 66.2263 356.945 66.0651C357.108 65.9039 357.327 65.8117 357.557 65.8075L365.887 64.5745C366.054 64.5533 366.214 64.4982 366.358 64.4126C366.358 64.5242 366.336 64.6348 366.294 64.7379C366.251 64.841 366.188 64.9345 366.109 65.0131C366.029 65.0917 365.935 65.1537 365.832 65.1955C365.728 65.2374 365.617 65.2583 365.506 65.2569L357.175 66.4899C356.999 66.5154 356.831 66.5779 356.681 66.6732Z" fill="url(#paint41_radial_213:6623)"/>
<path style="mix-blend-mode:color-dodge" d="M328.028 47.8013L334.122 55.4242C334.53 55.9283 334.641 56.4499 334.414 56.8163L334.086 57.4024C334.158 57.1736 334.167 56.9294 334.111 56.6959C334.055 56.4623 333.937 56.2482 333.769 56.0765L327.674 48.4536C327.101 47.7307 327.188 47.1018 327.66 46.7918C327.665 47.16 327.794 47.5159 328.028 47.8013Z" fill="url(#paint42_radial_213:6623)"/>
<path style="mix-blend-mode:color-dodge" d="M333.768 64.9883L343.44 65.9869C344.141 66.0794 344.8 66.3724 345.339 66.8305L353.53 73.7081C353.904 74.08 354.375 74.3393 354.89 74.4564C355.404 74.5735 355.941 74.5437 356.439 74.3704C356.441 75.5198 354.496 75.5809 353.148 74.3905L344.957 67.513C344.418 67.0548 343.759 66.7618 343.058 66.6693L333.386 65.6707C331.776 65.5051 330.239 63.9108 330.755 63.0506L331.092 62.4469C330.719 63.3407 332.202 64.8248 333.768 64.9883Z" fill="url(#paint43_radial_213:6623)"/>
</g>
</g>
<g clip-path="url(#clip7_213:6623)">
<path d="M361.151 408.397H230.475V413.889C230.475 414.055 230.475 415.273 230.475 415.438C230.475 436.414 259.731 453.406 295.813 453.406C331.896 453.406 361.151 436.414 361.151 415.397C361.151 415.231 361.151 414.013 361.151 413.848V408.397Z" fill="url(#paint44_linear_213:6623)"/>
<path d="M295.813 441.349C331.898 441.349 361.151 426.716 361.151 408.666C361.151 390.616 331.898 375.983 295.813 375.983C259.728 375.983 230.475 390.616 230.475 408.666C230.475 426.716 259.728 441.349 295.813 441.349Z" fill="url(#paint45_linear_213:6623)"/>
<path style="mix-blend-mode:color-dodge" d="M295.813 440.544C260.641 440.544 232.006 425.844 230.538 408.439C230.538 408.914 230.538 409.368 230.538 409.843C230.538 427.887 259.793 442.505 295.875 442.505C331.958 442.505 361.151 427.887 361.151 409.843C361.151 409.368 361.151 408.914 361.151 408.439C359.62 425.844 330.965 440.544 295.813 440.544Z" fill="url(#paint46_radial_213:6623)"/>
<path d="M296.372 390.188C296.227 390.415 296.372 390.662 296.703 390.766L324.758 398.88C325.399 399.065 325.978 398.467 325.461 398.136L301.896 382.982C301.732 382.882 301.538 382.844 301.348 382.874C301.158 382.905 300.986 383.001 300.861 383.147L296.372 390.188Z" fill="white"/>
<path d="M286.668 401.977L293.351 391.406L294.22 390.022L297.778 384.386C298.027 383.973 297.323 383.581 296.806 383.87L271.048 397.269C270.654 397.476 270.717 397.889 271.172 398.033L285.82 402.162C285.964 402.215 286.121 402.226 286.271 402.193C286.422 402.16 286.559 402.085 286.668 401.977Z" fill="white"/>
<path d="M330.406 403.215C330.551 402.555 330.034 401.935 329.144 401.667L295.834 392.128C295.683 392.083 295.523 392.082 295.373 392.126C295.222 392.17 295.087 392.257 294.985 392.376L288.572 402.555C288.427 402.782 288.572 403.029 288.903 403.133L327.199 414.096C327.571 414.199 328.027 414.096 328.089 413.745L330.406 403.215Z" fill="white"/>
<path d="M285.199 404.186C285.344 403.959 285.199 403.69 284.868 403.608L270.199 399.478C269.765 399.354 269.248 399.602 269.31 399.953L272.765 421.9C272.765 422.354 273.737 422.437 273.986 422.024L285.199 404.186Z" fill="white"/>
<path d="M324.551 414.963L288.034 404.495C287.884 404.45 287.723 404.449 287.573 404.493C287.422 404.537 287.288 404.624 287.186 404.743L275.33 423.531C275.124 423.882 275.537 424.233 276.055 424.13L324.448 415.871C325.048 415.686 325.13 415.128 324.551 414.963Z" fill="white"/>
</g>
<g clip-path="url(#clip8_213:6623)">
<path d="M180.631 48.566L128.477 12.9371L126.98 15.129C126.935 15.1949 126.603 15.6811 126.558 15.747C120.838 24.119 127.882 38.8771 142.283 48.7151C156.684 58.5531 172.993 59.7479 178.723 51.3594C178.768 51.2935 179.1 50.8073 179.145 50.7414L180.631 48.566Z" fill="url(#paint47_linear_213:6623)"/>
<path d="M145.57 43.9028C159.972 53.7415 175.637 55.8772 180.558 48.6731C185.48 41.469 177.794 27.6531 163.392 17.8144C148.99 7.9758 133.325 5.84008 128.404 13.0442C123.482 20.2483 131.168 34.0642 145.57 43.9028Z" fill="url(#paint48_linear_213:6623)"/>
<path style="mix-blend-mode:color-dodge" d="M145.79 43.5815C131.752 33.9917 124.331 20.3175 128.491 12.9705C128.361 13.16 128.237 13.3413 128.108 13.5308C123.188 20.7327 130.878 34.5432 145.28 44.3812C159.681 54.2192 175.317 56.3447 180.237 49.1428C180.367 48.9533 180.491 48.772 180.62 48.5825C175.264 55.1115 159.819 53.1656 145.79 43.5815Z" fill="url(#paint49_radial_213:6623)"/>
<path d="M159.742 23.6359C159.622 23.6871 159.613 23.8255 159.717 23.9569L168.702 34.8446C168.907 35.0936 169.301 35.0126 169.185 34.7397L163.912 22.2663C163.873 22.1817 163.806 22.1136 163.722 22.0739C163.638 22.0343 163.543 22.0259 163.454 22.0501L159.742 23.6359Z" fill="white"/>
<path d="M152.655 25.6954L158.204 23.2986L158.928 22.9834L161.885 21.7041C162.097 21.607 161.923 21.2586 161.638 21.2329L147.704 19.5577C147.491 19.5329 147.403 19.7146 147.545 19.8964L152.266 25.5383C152.309 25.5988 152.369 25.6458 152.438 25.6736C152.507 25.7015 152.582 25.709 152.655 25.6954Z" fill="white"/>
<path d="M169.774 38.115C170.012 37.8908 169.974 37.5026 169.692 37.1529L158.998 24.2639C158.951 24.2047 158.887 24.1607 158.815 24.1372C158.743 24.1137 158.665 24.1117 158.592 24.1314L153.257 26.4451C153.137 26.4963 153.128 26.6346 153.232 26.7661L165.527 41.5832C165.648 41.726 165.857 41.8089 165.978 41.6857L169.774 38.115Z" fill="white"/>
<path d="M151.467 26.1767C151.586 26.1255 151.602 25.9789 151.492 25.8557L146.763 20.2082C146.624 20.0403 146.35 19.9981 146.279 20.1551L141.674 29.8565C141.55 30.0377 141.916 30.3358 142.127 30.2387L151.467 26.1767Z" fill="white"/>
<path d="M164.234 41.2073L152.513 27.073C152.466 27.0139 152.402 26.9699 152.33 26.9464C152.258 26.9229 152.18 26.9209 152.107 26.9406L142.253 31.2069C142.075 31.2905 142.144 31.5434 142.379 31.6433L163.945 41.5416C164.235 41.6311 164.42 41.4311 164.234 41.2073Z" fill="white"/>
</g>
<defs>
<linearGradient id="paint0_linear_213:6623" x1="231.488" y1="565.187" x2="296.032" y2="676.963" gradientUnits="userSpaceOnUse">
<stop offset="0.06" stop-color="#200041"/>
<stop offset="0.18" stop-color="#210243"/>
<stop offset="0.24" stop-color="#25084B"/>
<stop offset="0.29" stop-color="#2C1358"/>
<stop offset="0.31" stop-color="#311B61"/>
<stop offset="0.36" stop-color="#351E65"/>
<stop offset="0.41" stop-color="#3F2773"/>
<stop offset="0.46" stop-color="#503688"/>
<stop offset="0.51" stop-color="#684AA7"/>
<stop offset="0.53" stop-color="#7656B8"/>
<stop offset="0.54" stop-color="#6E50AE"/>
<stop offset="0.56" stop-color="#54398D"/>
<stop offset="0.59" stop-color="#412875"/>
<stop offset="0.61" stop-color="#351E66"/>
<stop offset="0.63" stop-color="#311B61"/>
<stop offset="0.67" stop-color="#2A1155"/>
<stop offset="0.75" stop-color="#230446"/>
<stop offset="0.81" stop-color="#200041"/>
<stop offset="1" stop-color="#200041"/>
</linearGradient>
<radialGradient id="paint1_radial_213:6623" cx="0" cy="0" r="1" gradientUnits="userSpaceOnUse" gradientTransform="translate(308.227 534.049) scale(47.7329 47.7369)">
<stop stop-color="#AF8AFC"/>
<stop offset="1" stop-color="#10054D"/>
</radialGradient>
<linearGradient id="paint2_linear_213:6623" x1="292.128" y1="590.317" x2="-46.1097" y2="484.44" gradientUnits="userSpaceOnUse">
<stop offset="0.19" stop-color="#3D065F"/>
<stop offset="0.93" stop-color="#3D065F"/>
</linearGradient>
<linearGradient id="paint3_linear_213:6623" x1="259.259" y1="656.627" x2="167.213" y2="462.149" gradientUnits="userSpaceOnUse">
<stop stop-color="#311B61"/>
<stop offset="0.2" stop-color="#290F52"/>
<stop offset="0.49" stop-color="#200041"/>
<stop offset="1" stop-color="#0F001F"/>
</linearGradient>
<linearGradient id="paint4_linear_213:6623" x1="230.355" y1="564.483" x2="217.635" y2="585.888" gradientUnits="userSpaceOnUse">
<stop offset="0.12" stop-color="#A499BD"/>
<stop offset="0.39" stop-color="#83739E"/>
<stop offset="0.8" stop-color="#553E73"/>
<stop offset="1" stop-color="#432962"/>
</linearGradient>
<linearGradient id="paint5_linear_213:6623" x1="101.591" y1="109.086" x2="268.239" y2="397.71" gradientUnits="userSpaceOnUse">
<stop offset="0.06" stop-color="#200041"/>
<stop offset="0.26" stop-color="#210243"/>
<stop offset="0.36" stop-color="#25084B"/>
<stop offset="0.43" stop-color="#2C1358"/>
<stop offset="0.47" stop-color="#311B61"/>
<stop offset="0.48" stop-color="#351F65"/>
<stop offset="0.5" stop-color="#422C73"/>
<stop offset="0.51" stop-color="#584188"/>
<stop offset="0.52" stop-color="#765FA7"/>
<stop offset="0.53" stop-color="#8770B8"/>
<stop offset="0.54" stop-color="#7E67AE"/>
<stop offset="0.56" stop-color="#5C468D"/>
<stop offset="0.59" stop-color="#442E75"/>
<stop offset="0.61" stop-color="#362066"/>
<stop offset="0.63" stop-color="#311B61"/>
<stop offset="0.67" stop-color="#2A1155"/>
<stop offset="0.75" stop-color="#230446"/>
<stop offset="0.81" stop-color="#200041"/>
<stop offset="1" stop-color="#200041"/>
</linearGradient>
<radialGradient id="paint6_radial_213:6623" cx="0" cy="0" r="1" gradientUnits="userSpaceOnUse" gradientTransform="translate(360.526 226.36) scale(312.692 312.719)">
<stop stop-color="#711F56"/>
<stop offset="0.16" stop-color="#6C1E52"/>
<stop offset="0.36" stop-color="#5C1946"/>
<stop offset="0.58" stop-color="#431233"/>
<stop offset="0.82" stop-color="#200918"/>
<stop offset="1"/>
</radialGradient>
<radialGradient id="paint7_radial_213:6623" cx="0" cy="0" r="1" gradientUnits="userSpaceOnUse" gradientTransform="translate(103033 60522.1) scale(19286 52500.3)">
<stop stop-color="#AF8AFC"/>
<stop offset="1" stop-color="#10054D"/>
</radialGradient>
<linearGradient id="paint8_linear_213:6623" x1="104575" y1="109326" x2="46803.3" y2="102682" gradientUnits="userSpaceOnUse">
<stop offset="0.19" stop-color="#3D065F"/>
<stop offset="0.93" stop-color="#3D065F"/>
</linearGradient>
<linearGradient id="paint9_linear_213:6623" x1="101106" y1="162349" x2="11028.5" y2="93904.7" gradientUnits="userSpaceOnUse">
<stop stop-color="#311B61"/>
<stop offset="0.2" stop-color="#290F52"/>
<stop offset="0.49" stop-color="#200041"/>
<stop offset="1" stop-color="#0F001F"/>
</linearGradient>
<linearGradient id="paint10_linear_213:6623" x1="77246.9" y1="95475.4" x2="92616.9" y2="95475.4" gradientUnits="userSpaceOnUse">
<stop stop-color="#311B61"/>
<stop offset="0.2" stop-color="#290F52"/>
<stop offset="0.49" stop-color="#200041"/>
<stop offset="1" stop-color="#0F001F"/>
</linearGradient>
<linearGradient id="paint11_linear_213:6623" x1="121.81" y1="153.562" x2="368.952" y2="624.785" gradientUnits="userSpaceOnUse">
<stop offset="0.01" stop-color="#9F19AB"/>
<stop offset="0.43" stop-color="#5F27BD"/>
<stop offset="0.9" stop-color="#3D065F"/>
</linearGradient>
<linearGradient id="paint12_linear_213:6623" x1="-295318" y1="170764" x2="-295251" y2="170881" gradientUnits="userSpaceOnUse">
<stop stop-color="#311B61"/>
<stop offset="0.2" stop-color="#290F52"/>
<stop offset="0.49" stop-color="#200041"/>
<stop offset="1" stop-color="#0F001F"/>
</linearGradient>
<linearGradient id="paint13_linear_213:6623" x1="326.095" y1="290.593" x2="306.048" y2="289.717" gradientUnits="userSpaceOnUse">
<stop stop-color="#3D065F"/>
<stop offset="1" stop-color="#5F27BD"/>
</linearGradient>
<radialGradient id="paint14_radial_213:6623" cx="0" cy="0" r="1" gradientUnits="userSpaceOnUse" gradientTransform="translate(3634.24 5814.03) scale(39.444 224.911)">
<stop stop-color="#711F56"/>
<stop offset="0.16" stop-color="#6C1E52"/>
<stop offset="0.36" stop-color="#5C1946"/>
<stop offset="0.58" stop-color="#431233"/>
<stop offset="0.82" stop-color="#200918"/>
<stop offset="1"/>
</radialGradient>
<linearGradient id="paint15_linear_213:6623" x1="234.766" y1="462.641" x2="115.853" y2="427.046" gradientUnits="userSpaceOnUse">
<stop offset="0.1" stop-color="#45108A"/>
<stop offset="1" stop-color="#7C1DC9"/>
</linearGradient>
<linearGradient id="paint16_linear_213:6623" x1="232.105" y1="464.426" x2="113.192" y2="428.814" gradientUnits="userSpaceOnUse">
<stop offset="0.04" stop-color="#9F19AB"/>
<stop offset="0.24" stop-color="#AE25B1"/>
<stop offset="0.65" stop-color="#D744BF"/>
<stop offset="1" stop-color="#FF63CE"/>
</linearGradient>
<radialGradient id="paint17_radial_213:6623" cx="0" cy="0" r="1" gradientUnits="userSpaceOnUse" gradientTransform="translate(204.489 434.353) scale(11.0879 11.0889)">
<stop stop-color="white"/>
<stop offset="0.07" stop-color="#D8D8D8"/>
<stop offset="0.16" stop-color="#A6A6A6"/>
<stop offset="0.26" stop-color="#797979"/>
<stop offset="0.37" stop-color="#545454"/>
<stop offset="0.47" stop-color="#353535"/>
<stop offset="0.59" stop-color="#1E1E1E"/>
<stop offset="0.7" stop-color="#0D0D0D"/>
<stop offset="0.84" stop-color="#030303"/>
<stop offset="1"/>
</radialGradient>
<radialGradient id="paint18_radial_213:6623" cx="0" cy="0" r="1" gradientUnits="userSpaceOnUse" gradientTransform="translate(14149.5 12835.1) scale(284.971 498.955)">
<stop stop-color="white"/>
<stop offset="0.07" stop-color="#D8D8D8"/>
<stop offset="0.16" stop-color="#A6A6A6"/>
<stop offset="0.26" stop-color="#797979"/>
<stop offset="0.37" stop-color="#545454"/>
<stop offset="0.47" stop-color="#353535"/>
<stop offset="0.59" stop-color="#1E1E1E"/>
<stop offset="0.7" stop-color="#0D0D0D"/>
<stop offset="0.84" stop-color="#030303"/>
<stop offset="1"/>
</radialGradient>
<linearGradient id="paint19_linear_213:6623" x1="74.4717" y1="618.069" x2="147.695" y2="618.069" gradientUnits="userSpaceOnUse">
<stop stop-color="#FFBB96"/>
<stop offset="0.23" stop-color="#FFFBC9"/>
<stop offset="0.54" stop-color="#F9B673"/>
<stop offset="0.64" stop-color="#F9B876"/>
<stop offset="0.72" stop-color="#FABE81"/>
<stop offset="0.81" stop-color="#FCC993"/>
<stop offset="0.86" stop-color="#FED2A3"/>
<stop offset="0.97" stop-color="#FFC28C"/>
</linearGradient>
<linearGradient id="paint20_linear_213:6623" x1="177.746" y1="538.507" x2="107.411" y2="609.269" gradientUnits="userSpaceOnUse">
<stop offset="0.04" stop-color="#FFBA78"/>
<stop offset="0.4" stop-color="#FFC987"/>
<stop offset="1" stop-color="#FEECA8"/>
</linearGradient>
<radialGradient id="paint21_radial_213:6623" cx="0" cy="0" r="1" gradientUnits="userSpaceOnUse" gradientTransform="translate(96.5942 626.129) scale(14.4186 14.4229)">
<stop stop-color="white"/>
<stop offset="1"/>
</radialGradient>
<linearGradient id="paint22_linear_213:6623" x1="155.908" y1="192.907" x2="76.596" y2="86.5666" gradientUnits="userSpaceOnUse">
<stop offset="0.04" stop-color="#F7AA90"/>
<stop offset="0.23" stop-color="#F9B996"/>
<stop offset="0.61" stop-color="#FFE2A6"/>
<stop offset="0.63" stop-color="#FFE4A7"/>
<stop offset="0.87" stop-color="#F7AA90"/>
</linearGradient>
<radialGradient id="paint23_radial_213:6623" cx="0" cy="0" r="1" gradientUnits="userSpaceOnUse" gradientTransform="translate(129.694 143.332) scale(49.6264 49.5994)">
<stop stop-color="white"/>
<stop offset="0.07" stop-color="#D8D8D8"/>
<stop offset="0.16" stop-color="#A6A6A6"/>
<stop offset="0.26" stop-color="#797979"/>
<stop offset="0.37" stop-color="#545454"/>
<stop offset="0.47" stop-color="#353535"/>
<stop offset="0.59" stop-color="#1E1E1E"/>
<stop offset="0.7" stop-color="#0D0D0D"/>
<stop offset="0.84" stop-color="#030303"/>
<stop offset="1"/>
</radialGradient>
<linearGradient id="paint24_linear_213:6623" x1="110.318" y1="369.656" x2="321.124" y2="306.514" gradientUnits="userSpaceOnUse">
<stop offset="0.04" stop-color="#9F19AB"/>
<stop offset="0.24" stop-color="#AE25B1"/>
<stop offset="0.65" stop-color="#D744BF"/>
<stop offset="1" stop-color="#FF63CE"/>
</linearGradient>
<linearGradient id="paint25_linear_213:6623" x1="-1777.22" y1="2448.41" x2="3697.89" y2="782.216" gradientUnits="userSpaceOnUse">
<stop offset="0.04" stop-color="#9F19AB"/>
<stop offset="0.24" stop-color="#AE25B1"/>
<stop offset="0.65" stop-color="#D744BF"/>
<stop offset="1" stop-color="#FF63CE"/>
</linearGradient>
<linearGradient id="paint26_linear_213:6623" x1="11587.8" y1="-4713.15" x2="9026.26" y2="3805.77" gradientUnits="userSpaceOnUse">
<stop offset="0.04" stop-color="#5E12FE"/>
<stop offset="0.24" stop-color="#AE25B1"/>
<stop offset="0.65" stop-color="#D744BF"/>
<stop offset="1" stop-color="#00A5FF"/>
</linearGradient>
<radialGradient id="paint27_radial_213:6623" cx="0" cy="0" r="1" gradientUnits="userSpaceOnUse" gradientTransform="translate(77.1327 380.904) scale(64.6329 64.609)">
<stop stop-color="white"/>
<stop offset="0.07" stop-color="#D8D8D8"/>
<stop offset="0.16" stop-color="#A6A6A6"/>
<stop offset="0.26" stop-color="#797979"/>
<stop offset="0.37" stop-color="#545454"/>
<stop offset="0.47" stop-color="#353535"/>
<stop offset="0.59" stop-color="#1E1E1E"/>
<stop offset="0.7" stop-color="#0D0D0D"/>
<stop offset="0.84" stop-color="#030303"/>
<stop offset="1"/>
</radialGradient>
<linearGradient id="paint28_linear_213:6623" x1="56.652" y1="343.033" x2="131.037" y2="396.448" gradientUnits="userSpaceOnUse">
<stop stop-color="#7C1DC9"/>
<stop offset="0.03" stop-color="#741BBD"/>
<stop offset="0.16" stop-color="#56148B"/>
<stop offset="0.3" stop-color="#3B0E60"/>
<stop offset="0.43" stop-color="#26093E"/>
<stop offset="0.57" stop-color="#150523"/>
<stop offset="0.71" stop-color="#09020F"/>
<stop offset="0.85" stop-color="#020104"/>
<stop offset="1"/>
</linearGradient>
<linearGradient id="paint29_linear_213:6623" x1="310.144" y1="232.62" x2="106.098" y2="171.471" gradientUnits="userSpaceOnUse">
<stop offset="0.04" stop-color="#138BBD"/>
<stop offset="0.23" stop-color="#169AC7"/>
<stop offset="0.59" stop-color="#1FC3DF"/>
<stop offset="1" stop-color="#2AF6FF"/>
</linearGradient>
<linearGradient id="paint30_linear_213:6623" x1="-98353.9" y1="5401.35" x2="-98908.1" y2="5303.73" gradientUnits="userSpaceOnUse">
<stop offset="0.04" stop-color="#138BBD"/>
<stop offset="0.23" stop-color="#169AC7"/>
<stop offset="0.59" stop-color="#1FC3DF"/>
<stop offset="1" stop-color="#2AF6FF"/>
</linearGradient>
<linearGradient id="paint31_linear_213:6623" x1="304.148" y1="143.821" x2="220.212" y2="287.304" gradientUnits="userSpaceOnUse">
<stop stop-color="#4EC1DE"/>
<stop offset="0.24" stop-color="#4DC4DE"/>
<stop offset="0.45" stop-color="#49CFDE"/>
<stop offset="0.64" stop-color="#43E1DE"/>
<stop offset="0.65" stop-color="#43E2DE"/>
<stop offset="0.77" stop-color="#3DABC8"/>
<stop offset="0.84" stop-color="#3A91BD"/>
<stop offset="0.88" stop-color="#3B96BF"/>
<stop offset="1" stop-color="#3CA0C3"/>
</linearGradient>
<radialGradient id="paint32_radial_213:6623" cx="0" cy="0" r="1" gradientUnits="userSpaceOnUse" gradientTransform="translate(262.751 222.59) rotate(180) scale(61.9834 61.9452)">
<stop stop-color="white"/>
<stop offset="1"/>
</radialGradient>
<radialGradient id="paint33_radial_213:6623" cx="0" cy="0" r="1" gradientUnits="userSpaceOnUse" gradientTransform="translate(116.991 411.098) rotate(-148.01) scale(14.8567 26.2007)">
<stop stop-color="#972A74"/>
<stop offset="0.04" stop-color="#8A266A"/>
<stop offset="0.19" stop-color="#601B4A"/>
<stop offset="0.35" stop-color="#3D112F"/>
<stop offset="0.51" stop-color="#230A1B"/>
<stop offset="0.67" stop-color="#0F040C"/>
<stop offset="0.83" stop-color="#040103"/>
<stop offset="1"/>
</radialGradient>
<linearGradient id="paint34_linear_213:6623" x1="55.6044" y1="491.158" x2="26.2559" y2="448.401" gradientUnits="userSpaceOnUse">
<stop offset="0.04" stop-color="#390C5C"/>
</linearGradient>
<linearGradient id="paint35_linear_213:6623" x1="34565.8" y1="-6235.77" x2="34680.5" y2="-4677.3" gradientUnits="userSpaceOnUse">
<stop offset="0.04" stop-color="#FF8CD8"/>
<stop offset="0.53125" stop-color="#BC5DF5"/>
<stop offset="1" stop-color="#8E00E5"/>
</linearGradient>
<radialGradient id="paint36_radial_213:6623" cx="0" cy="0" r="1" gradientUnits="userSpaceOnUse" gradientTransform="translate(15.198 486.773) rotate(-29.2148) scale(6.33012 6.3175)">
<stop stop-color="white"/>
<stop offset="0.07" stop-color="#D8D8D8"/>
<stop offset="0.16" stop-color="#A6A6A6"/>
<stop offset="0.26" stop-color="#797979"/>
<stop offset="0.37" stop-color="#545454"/>
<stop offset="0.47" stop-color="#353535"/>
<stop offset="0.59" stop-color="#1E1E1E"/>
<stop offset="0.7" stop-color="#0D0D0D"/>
<stop offset="0.84" stop-color="#030303"/>
<stop offset="1"/>
</radialGradient>
<radialGradient id="paint37_radial_213:6623" cx="0" cy="0" r="1" gradientUnits="userSpaceOnUse" gradientTransform="translate(9045.74 -1206.18) rotate(-29.2148) scale(84.8249 47.7077)">
<stop stop-color="white"/>
<stop offset="0.07" stop-color="#D8D8D8"/>
<stop offset="0.16" stop-color="#A6A6A6"/>
<stop offset="0.26" stop-color="#797979"/>
<stop offset="0.37" stop-color="#545454"/>
<stop offset="0.47" stop-color="#353535"/>
<stop offset="0.59" stop-color="#1E1E1E"/>
<stop offset="0.7" stop-color="#0D0D0D"/>
<stop offset="0.84" stop-color="#030303"/>
<stop offset="1"/>
</radialGradient>
<radialGradient id="paint38_radial_213:6623" cx="0" cy="0" r="1" gradientUnits="userSpaceOnUse" gradientTransform="translate(19897.2 -7705.46) rotate(-29.2148) scale(498.635 91.5102)">
<stop stop-color="white"/>
<stop offset="0.07" stop-color="#D8D8D8"/>
<stop offset="0.16" stop-color="#A6A6A6"/>
<stop offset="0.26" stop-color="#797979"/>
<stop offset="0.37" stop-color="#545454"/>
<stop offset="0.47" stop-color="#353535"/>
<stop offset="0.59" stop-color="#1E1E1E"/>
<stop offset="0.7" stop-color="#0D0D0D"/>
<stop offset="0.84" stop-color="#030303"/>
<stop offset="1"/>
</radialGradient>
<linearGradient id="paint39_linear_213:6623" x1="338.7" y1="68.0221" x2="355.278" y2="43.8707" gradientUnits="userSpaceOnUse">
<stop offset="0.04" stop-color="#390C5C"/>
</linearGradient>
<linearGradient id="paint40_linear_213:6623" x1="-19154.8" y1="-3731.76" x2="-19219.5" y2="-2851.44" gradientUnits="userSpaceOnUse">
<stop offset="0.04" stop-color="#FF8CD8"/>
<stop offset="0.53125" stop-color="#BC5DF5"/>
<stop offset="1" stop-color="#8E00E5"/>
</linearGradient>
<radialGradient id="paint41_radial_213:6623" cx="0" cy="0" r="1" gradientUnits="userSpaceOnUse" gradientTransform="translate(361.524 65.5453) rotate(-150.785) scale(3.57564 3.56851)">
<stop stop-color="white"/>
<stop offset="0.07" stop-color="#D8D8D8"/>
<stop offset="0.16" stop-color="#A6A6A6"/>
<stop offset="0.26" stop-color="#797979"/>
<stop offset="0.37" stop-color="#545454"/>
<stop offset="0.47" stop-color="#353535"/>
<stop offset="0.59" stop-color="#1E1E1E"/>
<stop offset="0.7" stop-color="#0D0D0D"/>
<stop offset="0.84" stop-color="#030303"/>
<stop offset="1"/>
</radialGradient>
<radialGradient id="paint42_radial_213:6623" cx="0" cy="0" r="1" gradientUnits="userSpaceOnUse" gradientTransform="translate(-4739.48 -890.736) rotate(-150.785) scale(47.9143 26.9482)">
<stop stop-color="white"/>
<stop offset="0.07" stop-color="#D8D8D8"/>
<stop offset="0.16" stop-color="#A6A6A6"/>
<stop offset="0.26" stop-color="#797979"/>
<stop offset="0.37" stop-color="#545454"/>
<stop offset="0.47" stop-color="#353535"/>
<stop offset="0.59" stop-color="#1E1E1E"/>
<stop offset="0.7" stop-color="#0D0D0D"/>
<stop offset="0.84" stop-color="#030303"/>
<stop offset="1"/>
</radialGradient>
<radialGradient id="paint43_radial_213:6623" cx="0" cy="0" r="1" gradientUnits="userSpaceOnUse" gradientTransform="translate(-10869.1 -4561.93) rotate(-150.785) scale(281.66 51.6907)">
<stop stop-color="white"/>
<stop offset="0.07" stop-color="#D8D8D8"/>
<stop offset="0.16" stop-color="#A6A6A6"/>
<stop offset="0.26" stop-color="#797979"/>
<stop offset="0.37" stop-color="#545454"/>
<stop offset="0.47" stop-color="#353535"/>
<stop offset="0.59" stop-color="#1E1E1E"/>
<stop offset="0.7" stop-color="#0D0D0D"/>
<stop offset="0.84" stop-color="#030303"/>
<stop offset="1"/>
</radialGradient>
<linearGradient id="paint44_linear_213:6623" x1="-2832.55" y1="2104.78" x2="4407.15" y2="-2606.3" gradientUnits="userSpaceOnUse">
<stop offset="0.04" stop-color="#531484"/>
</linearGradient>
<linearGradient id="paint45_linear_213:6623" x1="8870.72" y1="-2879.23" x2="7385.46" y2="2778.48" gradientUnits="userSpaceOnUse">
<stop offset="0.04" stop-color="#5E12FE"/>
<stop offset="0.24" stop-color="#AE25B1"/>
<stop offset="0.65" stop-color="#D744BF"/>
<stop offset="1" stop-color="#8512FE"/>
</linearGradient>
<radialGradient id="paint46_radial_213:6623" cx="0" cy="0" r="1" gradientUnits="userSpaceOnUse" gradientTransform="translate(269.951 445.024) scale(25.324 25.2709)">
<stop stop-color="white"/>
<stop offset="1"/>
</radialGradient>
<linearGradient id="paint47_linear_213:6623" x1="-1556.54" y1="-145.157" x2="2617.41" y2="-51.4862" gradientUnits="userSpaceOnUse">
<stop offset="0.04" stop-color="#531484"/>
</linearGradient>
<linearGradient id="paint48_linear_213:6623" x1="4473.29" y1="1056.58" x2="2337.92" y2="2909.69" gradientUnits="userSpaceOnUse">
<stop offset="0.04" stop-color="#5E12FE"/>
<stop offset="0.24" stop-color="#AE25B1"/>
<stop offset="0.65" stop-color="#D744BF"/>
<stop offset="1" stop-color="#8512FE"/>
</linearGradient>
<radialGradient id="paint49_radial_213:6623" cx="0" cy="0" r="1" gradientUnits="userSpaceOnUse" gradientTransform="translate(134.246 38.3183) rotate(34.3387) scale(12.2405 12.2148)">
<stop stop-color="white"/>
<stop offset="1"/>
</radialGradient>
<clipPath id="clip0_213:6623">
<rect width="191.858" height="540.829" fill="white" transform="translate(131.525 93.4828)"/>
</clipPath>
<clipPath id="clip1_213:6623">
<rect width="74.4018" height="44.1879" fill="white" transform="translate(74.1183 586.725)"/>
</clipPath>
<clipPath id="clip2_213:6623">
<rect width="106.882" height="126.898" fill="white" transform="translate(54.4791 82.9079)"/>
</clipPath>
<clipPath id="clip3_213:6623">
<rect width="175.241" height="111.792" fill="white" transform="translate(0.849457 286.852)"/>
</clipPath>
<clipPath id="clip4_213:6623">
<rect width="144.649" height="138.984" fill="white" transform="translate(200.639 155.421)"/>
</clipPath>
<clipPath id="clip5_213:6623">
<rect width="75.5348" height="49.4753" fill="white" transform="translate(0 473.476) rotate(-29.2148)"/>
</clipPath>
<clipPath id="clip6_213:6623">
<rect width="42.6667" height="27.9467" fill="white" transform="matrix(-0.872796 -0.488086 -0.488086 0.872796 370.108 58.0344)"/>
</clipPath>
<clipPath id="clip7_213:6623">
<rect width="130.675" height="77.4232" fill="white" transform="translate(230.475 375.983)"/>
</clipPath>
<clipPath id="clip8_213:6623">
<rect width="63.1623" height="37.4228" fill="white" transform="translate(137.315) rotate(34.3387)"/>
</clipPath>
</defs>
</svg>
