<svg width="155" height="35" viewBox="0 0 155 35" fill="none" xmlns="http://www.w3.org/2000/svg">
<path d="M61.76 11.305C63.06 11.305 64.14 11.635 65 12.295C65.86 12.955 66.44 13.85 66.74 14.98H64.925C64.675 14.34 64.275 13.835 63.725 13.465C63.185 13.085 62.52 12.895 61.73 12.895C61.1 12.895 60.535 13.05 60.035 13.36C59.545 13.67 59.155 14.115 58.865 14.695C58.585 15.265 58.445 15.935 58.445 16.705C58.445 17.465 58.585 18.135 58.865 18.715C59.155 19.285 59.545 19.725 60.035 20.035C60.535 20.345 61.1 20.5 61.73 20.5C62.52 20.5 63.185 20.315 63.725 19.945C64.275 19.565 64.675 19.06 64.925 18.43H66.74C66.44 19.56 65.86 20.455 65 21.115C64.14 21.765 63.06 22.09 61.76 22.09C60.76 22.09 59.875 21.865 59.105 21.415C58.335 20.955 57.74 20.32 57.32 19.51C56.9 18.69 56.69 17.755 56.69 16.705C56.69 15.655 56.9 14.725 57.32 13.915C57.74 13.095 58.335 12.455 59.105 11.995C59.875 11.535 60.76 11.305 61.76 11.305ZM76.8611 11.41V22H75.1361V17.245H70.1561V22H68.4461V11.41H70.1561V15.85H75.1361V11.41H76.8611ZM85.2494 19.705H80.7794L79.9694 22H78.1394L82.0394 11.575H84.0044L87.8894 22H86.0594L85.2494 19.705ZM84.7694 18.385L83.0144 13.435L81.2594 18.385H84.7694ZM90.869 11.41V22H89.159V11.41H90.869ZM101.503 22H99.7933L94.6483 14.185V22H92.9383V11.425H94.6483L99.7933 19.27V11.425H101.503V22ZM109.093 16.54C109.733 16.67 110.248 16.975 110.638 17.455C111.038 17.935 111.238 18.495 111.238 19.135C111.238 20.015 110.943 20.715 110.353 21.235C109.763 21.745 108.908 22 107.788 22H103.573V11.41H107.713C108.773 11.41 109.583 11.65 110.143 12.13C110.713 12.6 110.998 13.25 110.998 14.08C110.998 14.75 110.823 15.295 110.473 15.715C110.123 16.125 109.663 16.4 109.093 16.54ZM105.283 15.97H107.398C107.998 15.97 108.453 15.83 108.763 15.55C109.083 15.27 109.243 14.88 109.243 14.38C109.243 13.89 109.083 13.505 108.763 13.225C108.453 12.945 107.978 12.805 107.338 12.805H105.283V15.97ZM107.443 20.59C108.093 20.59 108.593 20.445 108.943 20.155C109.303 19.855 109.483 19.44 109.483 18.91C109.483 18.38 109.303 17.965 108.943 17.665C108.583 17.365 108.078 17.215 107.428 17.215H105.283V20.59H107.443ZM118.411 22L115.771 17.77H114.556V22H112.846V11.41H116.581C117.791 11.41 118.706 11.705 119.326 12.295C119.956 12.885 120.271 13.665 120.271 14.635C120.271 15.465 120.036 16.145 119.566 16.675C119.106 17.205 118.436 17.545 117.556 17.695L120.331 22H118.411ZM114.556 16.555H116.446C117.826 16.555 118.516 15.945 118.516 14.725C118.516 14.145 118.346 13.695 118.006 13.375C117.676 13.045 117.156 12.88 116.446 12.88H114.556V16.555ZM123.52 11.41V22H121.81V11.41H123.52ZM134.68 16.69C134.68 17.76 134.46 18.695 134.02 19.495C133.59 20.285 132.955 20.9 132.115 21.34C131.285 21.78 130.29 22 129.13 22H125.59V11.41H129.13C130.29 11.41 131.285 11.63 132.115 12.07C132.955 12.5 133.59 13.11 134.02 13.9C134.46 14.69 134.68 15.62 134.68 16.69ZM128.995 20.455C130.265 20.455 131.24 20.125 131.92 19.465C132.6 18.805 132.94 17.88 132.94 16.69C132.94 15.5 132.6 14.575 131.92 13.915C131.24 13.255 130.265 12.925 128.995 12.925H127.3V20.455H128.995ZM141.245 11.32C142.505 11.32 143.555 11.63 144.395 12.25C145.235 12.87 145.79 13.715 146.06 14.785H144.26C144.03 14.215 143.65 13.76 143.12 13.42C142.6 13.08 141.98 12.91 141.26 12.91C140.6 12.91 140.005 13.065 139.475 13.375C138.955 13.685 138.545 14.125 138.245 14.695C137.955 15.265 137.81 15.935 137.81 16.705C137.81 17.515 137.96 18.21 138.26 18.79C138.56 19.37 138.98 19.815 139.52 20.125C140.07 20.425 140.705 20.575 141.425 20.575C142.305 20.575 143.06 20.305 143.69 19.765C144.32 19.215 144.7 18.465 144.83 17.515H140.945V16.255H146.27V17.89C146.15 18.67 145.87 19.38 145.43 20.02C145 20.65 144.425 21.155 143.705 21.535C142.995 21.915 142.18 22.105 141.26 22.105C140.23 22.105 139.32 21.875 138.53 21.415C137.74 20.955 137.13 20.32 136.7 19.51C136.27 18.69 136.055 17.755 136.055 16.705C136.055 15.655 136.27 14.725 136.7 13.915C137.13 13.095 137.735 12.46 138.515 12.01C139.305 11.55 140.215 11.32 141.245 11.32ZM149.712 12.79V16H153.612V17.32H149.712V20.605H154.062V22H148.002V11.41H154.062V12.79H149.712Z" fill="#FCFCFC"/>
<path d="M25.8221 29.332H25.7705L25.6931 29.2261H25.6304L25.5272 29.09H25.4756L25.3171 28.9009C25.0531 28.6887 24.8065 28.4547 24.5797 28.2014L24.2664 27.9027V27.8498L24.0009 27.6078V27.5586L23.8424 27.4225V27.3696L23.6876 27.2335V27.1805L23.5806 27.0973V27.0444L23.4774 26.965V26.9083L23.3705 26.8289V26.7759L23.2931 26.723V26.6663L23.212 26.6134V26.5604L23.1346 26.5075V26.4508L23.0829 26.4243V26.3714L23.0018 26.3184V26.2617L22.9502 26.2352V26.1823L22.8986 26.1558V26.1029L22.8175 26.0462V25.9933L22.7659 25.9668V25.9139L22.7143 25.8874L22.6885 25.8042H22.6811L22.6553 25.6983L22.6 25.6681V25.6151L22.5484 25.5887V25.5357H22.5226V25.4828L22.471 25.4526L22.4452 25.3732H22.4157V25.3202H22.3899V25.2673L22.3382 25.237L22.2866 25.0782L22.2313 25.0518L22.1797 24.8892L22.1281 24.8627L21.9438 24.4317H21.918V24.375L21.8663 24.3485L21.8405 24.2124H21.811L21.7852 24.1065H21.7594V24.0536H21.7336V23.9968H21.7078L21.6562 23.838H21.6267V23.7549H21.5751L21.5493 23.649H21.5235V23.5961H21.4977V23.5129H21.4719L21.4461 23.407H21.4203V23.3238H21.3908V23.2709H21.365V23.1915H21.3392V23.1348H21.3133L21.2875 23.0024H21.2617L21.2359 22.8398H21.2101V22.7869H21.2064L21.1806 22.6243H21.1548V22.5714H21.129V22.4617H21.1032V22.4088H21.0774V22.3256H21.0516V22.2197H21.0258V22.1668H20.9963V22.0571H20.9705V21.9777H20.9447V21.887H20.9189V21.7811H20.8931L20.8673 21.5921H20.8378V21.5089H20.8083C20.8083 21.4371 20.8083 21.3652 20.7825 21.2934H20.7567L20.7309 21.0741H20.7051C20.6866 20.9606 20.6682 20.8434 20.6534 20.7262H20.6276V20.5901C20.5723 20.4162 20.5465 20.1779 20.4949 19.9965V19.8377H20.4691V19.6486H20.4433V19.4595H20.4175V19.1873H20.388V18.9453H20.3622V18.5975C20.3622 18.5975 20.3401 18.5975 20.3364 18.5407V18.0568C20.3011 17.8153 20.2924 17.5705 20.3106 17.327V17.0586H20.3364V16.5216H20.3622V16.17H20.388V15.928H20.4175L20.4949 15.0924C20.5576 14.8769 20.5871 14.6009 20.6534 14.3891V14.2568H20.6792C20.6792 14.1471 20.7124 14.0413 20.7309 13.9316H20.7567C20.7751 13.8257 20.7935 13.7161 20.8083 13.6102H20.8378V13.5006H20.8636L20.9152 13.2321H20.941V13.1489H20.9668V13.0695H20.9926V12.9599H21.0221V12.8805H21.0479V12.8124H21.0737V12.7292H21.0995L21.1253 12.5704H21.1511V12.5137H21.1769L21.2322 12.2717H21.2581L21.2839 12.1356H21.3097V12.0827H21.3355L21.3613 11.9201H21.3871V11.8671H21.4129V11.7877H21.4424L21.4682 11.6781H21.494V11.5987H21.5198V11.5457H21.5456V11.489H21.5751V11.4361V11.3567H21.6009L21.6562 11.1941H21.682V11.1412H21.7078V11.0844H21.7336V11.005H21.7594L21.8147 10.8425H21.8405V10.7895H21.8663V10.7366H21.8922L21.9438 10.574L21.9954 10.5475L22.0249 10.4379H22.0507V10.3849H22.0765V10.332L22.1281 10.2791V10.2224L22.1797 10.1959L22.235 10.0333L22.2866 10.0068L22.3124 9.90097L22.364 9.8745L22.3899 9.76485L22.4452 9.73838L22.471 9.62873L22.5226 9.60226V9.54933H22.5484V9.49639L22.6 9.46993V9.40943L22.6553 9.38296V9.33002L22.7069 9.30356V9.25062L22.7585 9.22037V9.16744L22.8101 9.14097V9.08803L22.8654 9.06157V9.00485H22.8912L22.917 8.92545L22.9687 8.89898V8.84604L23.0498 8.78933V8.73639L23.1272 8.68346V8.63052L23.1788 8.60028V8.54734L23.2341 8.52087L23.2599 8.44147L23.3373 8.38475V8.33182L23.4442 8.25242V8.19948L23.5475 8.1163V8.06336L23.6544 7.98396V7.92724L23.7834 7.82137V7.76465L23.9419 7.63232V7.57938L24.1521 7.39033L24.1779 7.30715L24.5982 6.90257C24.8345 6.64133 25.0896 6.39866 25.3613 6.1766L25.5198 5.98755H25.5714L25.6783 5.85143H25.73L25.8074 5.74556H25.859L25.9401 5.63591C25.9991 5.59432 26.0507 5.58675 26.0986 5.53004C26.1466 5.47332 26.0986 5.53004 26.1244 5.50357C26.0308 5.46972 25.9416 5.424 25.859 5.36745H25.8074V5.34098H25.7558V5.31451H25.7042V5.28805L25.5456 5.23133V5.20486H25.4682V5.17839L25.3613 5.15193V5.12546H25.3097V5.09899H25.2618V5.07252L25.1585 5.04227V5.01581L25 4.98934V4.96288L24.8673 4.93641V4.90994H24.8157V4.87213L24.6571 4.84188V4.81541H24.6055V4.78894L24.3696 4.73601V4.70954H24.2922V4.68307H24.2111V4.6566H24.1336V4.62636H24.0525V4.59989H23.9751V4.57342L23.7908 4.54695V4.52049L23.5806 4.49402H23.5032V4.46755H23.3963V4.43731H23.2931V4.41083H23.1862V4.38437L22.8433 4.33144V4.30496L22.5558 4.27849V4.25203L22.2387 4.22178V4.19532H22.1097V4.16885H21.8995V4.11591H21.6894H21.4534V4.08944H21.1364V4.06298H20.6903C20.4223 4.00787 20.1484 3.98881 19.8756 4.00626C19.8166 4.06298 19.706 4.00626 19.6138 4.03273V4.06298H19.2709L18.1944 4.16885L16.8009 4.46755V4.49402L16.5096 4.54695V4.57342L16.3253 4.59989V4.62636H16.2479V4.65282H16.1705V4.68307H16.0894V4.70954H16.0119V4.73601H15.9308V4.76248L15.6949 4.81541V4.84188H15.6433V4.87213L15.4848 4.90238V4.92884H15.4331V4.95531L15.2746 4.98178V5.00825H15.223V5.03471H15.1419V5.06118L15.0387 5.09143V5.1179H14.9391V5.14437L14.8322 5.17083V5.1973H14.7806V5.22377H14.6995V5.25024L14.5447 5.30695V5.33342H14.4894V5.35988H14.4377V5.38635H14.3861V5.41282H14.3345V5.43929L14.2018 5.46576L14.176 5.52247L14.0691 5.54894V5.57541H14.0175V5.60187H13.9659V5.62834H13.9142L13.8589 5.68128H13.8073L13.7815 5.73799L13.623 5.79093V5.8174H13.5714L13.5456 5.87033L13.4387 5.8968L13.4129 5.95352L13.3096 5.97998L13.2801 6.03292L13.1769 6.05939L13.1511 6.11232H13.0958L13.0663 6.16904H13.0147L12.9889 6.22198H12.9373L12.9115 6.27491H12.8562L12.8304 6.32785H12.7788L12.7529 6.38456H12.7271L12.646 6.41103L12.6202 6.46397H12.5686L12.517 6.54714H12.4617L12.4359 6.60009H12.3585L12.3069 6.67948H12.2516L12.2 6.76267H12.1483L12.0967 6.84207H12.0414L11.964 6.95172H11.9124L11.8055 7.08406H11.7539L11.647 7.22018H11.6211L11.4884 7.38277H11.4368L11.1751 7.67769H11.1234L10.729 8.10873L10.5704 8.24485V8.29779L10.3087 8.53978V8.59271L10.1244 8.7553V8.81202L9.99164 8.91789V8.97082L9.88842 9.054V9.10694L9.83312 9.13341V9.15987L9.7815 9.18634V9.24306L9.70409 9.29599V9.34893L9.62298 9.40186V9.45858L9.54556 9.51152V9.56445L9.46814 9.61739V9.6741L9.41284 9.70057V9.75351L9.33542 9.80644V9.86316L9.28381 9.88963L9.25431 9.96903H9.22851V10.022L9.17689 10.0484L9.15109 10.1316H9.12528V10.1846L9.07367 10.211L9.04417 10.3207L8.99256 10.3471L8.96676 10.4265H8.94095L8.91514 10.5362L8.86353 10.5627L8.83404 10.6685L8.78242 10.6988L8.73081 10.8576L8.6792 10.884V10.9408L8.62389 10.9937V11.0466H8.59809V11.1034H8.57228V11.1563L8.52067 11.1828V11.2357L8.46906 11.2886V11.3453H8.43956V11.3983H8.41376V11.4512H8.38795V11.5041H8.36215V11.5609H8.30316V11.6138L8.25154 11.7764H8.22205V11.8558H8.19625V11.9087H8.17044V11.9654H8.14463L8.11882 12.0713H8.09302V12.1545H8.06721L8.0414 12.2604H8.01191V12.3398H7.98611V12.3965H7.93449V12.4759V12.5288H7.90868C7.75753 12.9901 7.61007 13.4476 7.4626 13.9051L7.43679 14.1207H7.4073V14.2303H7.38149V14.3362H7.35569V14.4458H7.32988C7.32988 14.5252 7.31145 14.6046 7.30407 14.6878H7.27827L7.09394 15.7919C7.09394 15.962 7.0755 16.1322 7.06813 16.3061H7.04232V16.7069C6.99861 17.0111 6.98872 17.3193 7.01283 17.6257C7.01283 17.9774 7.03126 18.3252 7.04232 18.6769H7.06813V18.9453H7.09394V19.1873C7.13818 19.3461 7.15292 19.5654 7.19716 19.728V19.8906C7.24509 20.0494 7.28196 20.2687 7.32988 20.4275V20.5636H7.35569V20.643H7.38149V20.7791H7.4073V20.8585H7.43679C7.43679 20.9682 7.46997 21.0741 7.4884 21.1837H7.51421L7.54002 21.3728H7.56583V21.4522V21.5354H7.59164V21.6148H7.62112V21.6942H7.64693V21.7774H7.67274V21.8568H7.69855V21.9399H7.72435V22.0193H7.75016V22.0987C7.97848 22.7122 8.25081 23.3075 8.56491 23.8796V23.9326L8.61653 23.9855V24.0422H8.67182V24.0952V24.1556L8.72344 24.1821L8.74924 24.2918L8.80086 24.3182L8.83035 24.4279L8.88196 24.4544L8.90777 24.5602L8.95938 24.5867L8.98519 24.6963L9.04049 24.7228V24.7757L9.0921 24.8022V24.8589L9.14371 24.8854V24.9383L9.19533 24.9648V25.0177L9.25063 25.048V25.1009L9.30224 25.1274V25.1803L9.35386 25.2068V25.2635L9.43496 25.3164V25.3694L9.48658 25.3958V25.4488L9.56399 25.5055V25.5584L9.6451 25.6114V25.6681L9.72252 25.7248V25.7777L9.77413 25.8042V25.8307L9.82575 25.8571V25.9139L9.93266 25.9933V26.0462L10.0654 26.1558V26.2088L10.2202 26.3449C10.4121 26.5958 10.6242 26.8298 10.8543 27.0444L11.1935 27.4225L11.2746 27.449L11.4294 27.638H11.4847L11.6396 27.8271H11.6949L11.7723 27.933H11.8239L11.9308 28.0691H11.9898L12.0414 28.1485H12.0967L12.1741 28.2581L12.2516 28.2846L12.2774 28.3375H12.3585L12.3843 28.3942H12.4359L12.4875 28.4736H12.5428L12.5686 28.5266H12.6202L12.6718 28.6098H12.7271L12.7529 28.6627H12.8046L12.8304 28.7156L12.9078 28.7421V28.7686H12.9631L12.9889 28.8253H13.0405L13.0663 28.8782H13.0958V28.9047H13.1474L13.1732 28.9576H13.2248L13.2506 29.0143L13.3576 29.0408L13.3834 29.0937L13.4866 29.1202L13.5161 29.1731L13.6709 29.2299L13.6967 29.2828H13.752L13.8036 29.3357H13.8553V29.3622H13.9106V29.3887H13.9622L13.988 29.4454H14.0396L14.0912 29.4983H14.1465V29.5248H14.2018V29.5513H14.2534V29.5777H14.305V29.6042H14.3603V29.6344L14.5189 29.6874V29.7138H14.5963V29.7403L14.7548 29.7932V29.8273H14.8064V29.8575H14.8838V29.884L14.9907 29.9105V29.9369H15.0682V29.9634L15.1751 29.9899V30.0163L15.3336 30.0428V30.073L15.4626 30.0995V30.126H15.5142V30.1524L15.6728 30.1789V30.2054H15.7244L15.964 30.2621V30.2886H16.0451V30.315H16.1225V30.3415H16.2036V30.368L16.388 30.3944V30.4209L16.5723 30.4512V30.4776L16.8599 30.5306V30.5835L17.2027 30.6364V30.6629L17.4387 30.6931V30.7196H17.5419V30.7461L17.8332 30.7725V30.799L18.176 30.8255V30.852H18.3308V30.8784H18.541V30.9087H18.7769V30.9351H19.0682V30.9616L19.9603 30.9881C20.2406 31.0103 20.5225 31.0014 20.8009 30.9616H21.2064V30.9351H21.4977V30.9087H21.7336V30.8784H21.9438V30.852H22.1023V30.8255H22.2866V30.799H22.4452V30.7725H22.5742V30.7461H22.7327V30.7196L23.2046 30.6364V30.5835H23.4184V30.557L23.8129 30.4776V30.4474H23.894V30.4209H23.9714V30.3944H24.0783V30.368H24.13V30.3415L24.4691 30.2621V30.2054H24.5244L24.7604 30.1524V30.126H24.812V30.0995H24.8931V30.073H24.9447V30.0428H25.0221V30.0163H25.1032V29.9899L25.2065 29.9634V29.9369H25.2618V29.9105L25.3687 29.884V29.8575H25.4461V29.8273L25.6046 29.7743V29.7479H25.6562V29.7214H25.7373V29.6949H25.7889V29.6685H25.8406V29.642H25.8959V29.6118C25.9512 29.5815 25.9512 29.6118 25.9991 29.5588C26.047 29.5059 25.9991 29.5588 26.0249 29.5324L25.8406 29.3962L25.8221 29.332ZM47.942 16.8241V16.446C47.8831 16.2343 47.8978 15.928 47.8388 15.7201V15.531C47.7725 15.3079 47.7466 15.0206 47.6803 14.8012V14.6689C47.5586 14.219 47.4333 13.769 47.3116 13.3191H47.2858V13.2661H47.26V13.1905H47.2342V13.1073H47.2084V13.0279H47.1826V12.9447H47.1531L47.1273 12.8124H47.1015V12.7557H47.0757L47.0499 12.5969H47.0241L46.9983 12.4872H46.9688V12.4078H46.943L46.9172 12.2982H46.8913V12.2188H46.8655V12.1658H46.8397L46.7881 12.0033H46.7586V11.9201H46.7328C46.7328 11.8671 46.6996 11.8142 46.6812 11.7613H46.6554V11.7045H46.6443V11.6516H46.6185V11.5987H46.5927V11.5457H46.5632V11.489L46.5116 11.4361V11.3832L46.46 11.3567V11.3L46.4084 11.247V11.1941H46.3826V11.1412H46.3531V11.0844L46.3015 11.058V11.005H46.2757V10.9521L46.2241 10.9256L46.1688 10.7631L46.1171 10.7366V10.6799H46.0913V10.6269L46.0397 10.6005V10.5438L45.9881 10.5173V10.4606L45.9328 10.4341L45.907 10.3282L45.8554 10.3018V10.245L45.8038 10.2186V10.1656L45.7227 10.1127V10.056L45.6711 10.0295L45.6453 9.95012H45.6194V9.89718L45.5383 9.84047V9.78754L45.4867 9.76107V9.70813L45.4351 9.68167L45.4093 9.59848L45.3282 9.54555V9.49261L45.225 9.40943V9.35649L45.1734 9.33002V9.30356L45.1181 9.27709V9.22037L44.989 9.1145V9.06157L44.9079 9.00485V8.97838L44.8563 8.95191V8.89898L44.6462 8.70992V8.65321L44.1485 8.16545L43.754 7.73441H43.695L43.5402 7.54536H43.4849L43.3558 7.38655L43.2747 7.36008L43.2231 7.2769H43.1715L43.0904 7.17103H43.0388L42.9614 7.06137H42.9061L42.8545 6.98197H42.8028L42.7512 6.89879H42.6959L42.6443 6.81938H42.589L42.5632 6.76645H42.5079L42.4563 6.68326H42.4047L42.3789 6.63033H42.3273L42.2978 6.57739L42.2204 6.55093V6.52446H42.1687L42.1429 6.46774H42.0876L42.0618 6.41481H42.0102L41.9844 6.36187L41.8775 6.3354L41.8517 6.27869L41.7485 6.25222L41.7227 6.19929L41.6157 6.17282L41.5899 6.11989L41.483 6.08964L41.4572 6.0367H41.4056L41.354 5.98377H41.3024V5.9573H41.2471L41.2213 5.90436H41.1697L41.118 5.84765H41.0627V5.82118H41.0111V5.79471H40.9595V5.76824H40.9079V5.74178H40.8526V5.71531H40.801V5.68506H40.7457V5.65859H40.6941V5.62834L40.5872 5.60187V5.57541L40.4839 5.54894V5.52247H40.4286V5.496H40.377V5.46576H40.3254V5.43929L40.2185 5.41282V5.38635H40.1411V5.35988H40.0858V5.33342L39.9567 5.30695V5.28048H39.8756V5.25024H39.824H39.7466V5.22377H39.6913V5.1973L39.5365 5.17083V5.14437H39.4812V5.1179H39.4038V5.09143H39.3263V5.06118H39.2452V5.03471H39.1678V5.00825H39.0904V4.98178H39.0093V4.95531H38.9024V4.92884H38.8213V4.87213H38.7438L38.5595 4.84566V4.81919L38.3494 4.79272V4.76626H38.2425V4.73979H38.165V4.71332H38.0581V4.68685H37.9549V4.6566L37.5604 4.60367C37.3282 4.53183 37.0148 4.51671 36.7715 4.44108H36.5355V4.41461H36.2996V4.38815H35.953C35.7615 4.35942 35.5676 4.35055 35.3742 4.36168C35.2341 4.36168 35.0535 4.33143 34.8765 4.33521C34.8028 4.39949 34.5079 4.36168 34.401 4.36168L33.4314 4.44108L32.3512 4.63014V4.6566L32.1152 4.68685V4.71332H32.012V4.73979H31.8977V4.76626H31.7945V4.79272L31.6102 4.81919V4.84566L31.4258 4.87213L31.1641 4.92506V4.95153H31.083V4.978H31.0056V5.00447L30.7696 5.06118V5.08765H30.7143V5.11412L30.5595 5.14059V5.16705H30.5042V5.19352L30.3456 5.21999V5.25024L30.2424 5.28048V5.30695H30.165V5.33342H30.1097V5.35988H30.0323V5.38635L29.9254 5.41282V5.43929H29.848V5.46576H29.7963V5.496H29.7447V5.52247L29.5862 5.57541V5.62834H29.5051L29.3503 5.68128V5.71153H29.295V5.73799H29.2433V5.76446L29.0848 5.8174L29.059 5.87033H29.0074L28.9558 5.92705H28.9005V5.95352H28.8489L28.8231 6.00645H28.7715L28.7161 6.05939H28.6645V6.08586H28.6129L28.5871 6.14257L28.4802 6.16904L28.4544 6.22198H28.4028V6.24844H28.3512L28.3254 6.30138L28.2443 6.33163V6.38456L28.141 6.41103L28.1115 6.46397H28.0599L28.0341 6.5169H27.9825L27.9567 6.57361H27.9014V6.60009L27.7724 6.57361L27.7208 6.65302H27.6655V6.67948L27.588 6.70595L27.5622 6.76267H27.5106L27.4553 6.84207H27.4037L27.3521 6.92147H27.2968L27.2452 7.00466H27.1936L27.1161 7.11053L27.035 7.137L27.0092 7.19371H26.9576L26.9318 7.24665L26.8507 7.29958V7.32605H26.7991L26.6922 7.46217H26.6406L26.482 7.65123H26.4304L26.1171 8.00286H26.0618L25.8516 8.24485L25.7484 8.32426V8.37719L25.5383 8.56625L25.4313 8.70237L25.3797 8.72883V8.78177L25.2212 8.91789V8.97082L25.0922 9.08047V9.13341L24.9594 9.23928V9.29599L24.8525 9.3754V9.40943L24.7751 9.46614V9.51908L24.6977 9.57201V9.62495L24.6166 9.68167V9.7346L24.5244 9.78754V9.84047L24.4728 9.87072L24.4433 9.95012H24.4175V10.0031L24.3401 10.056V10.1127L24.2885 10.1392V10.1921L24.2332 10.2186L24.2074 10.3018H24.1816L24.1558 10.4076L24.1041 10.4341V10.4908L24.0525 10.5173V10.5702L23.9972 10.5967L23.9714 10.7063L23.9198 10.7328L23.894 10.8387L23.8387 10.8651C23.8387 10.9219 23.8055 10.9748 23.7871 11.0277L23.7355 11.0542V11.1109L23.6839 11.1638V11.2168H23.6581V11.2697H23.6286V11.3264L23.577 11.3529V11.4058L23.5253 11.4588V11.5117H23.4995V11.5684H23.4737V11.6214H23.4479V11.6781H23.4184V11.7348V11.7877H23.3926V11.8407H23.3668V11.8936H23.341V11.9768H23.3152V12.0297H23.2894L23.2341 12.1923H23.2083V12.2717H23.1825L23.1567 12.3814H23.1309V12.4608H23.1051L23.0793 12.5704H23.0498L23.024 12.7292H22.9982V12.7859H22.9723C22.8396 13.1867 22.7106 13.5913 22.5779 13.9959C22.5779 14.0677 22.5594 14.1396 22.5521 14.2114C22.4931 14.3853 22.4488 14.5895 22.3935 14.7786L22.3677 15.0206H22.3124V15.1831C22.2498 15.3911 22.2424 15.6747 22.1797 15.8826V16.1284H22.1539V16.3704H22.1281V16.7183C22.0857 17.0225 22.077 17.3308 22.1023 17.6371C22.079 18.0059 22.0963 18.3763 22.1539 18.7411V19.0096H22.1797V19.2402H22.2055V19.4293H22.235V19.6184H22.2608V19.7809H22.3124V19.9171V20.0796H22.3382V20.212H22.364V20.3746H22.3899V20.5107H22.4193V20.6166H22.4452V20.7262H22.471C22.4894 20.8321 22.5041 20.9417 22.5226 21.0476H22.5484C22.5484 21.1459 22.5852 21.2442 22.6 21.3463H22.6295V21.4257H22.6811V21.5051V21.5883H22.7069V21.6677H22.7327V21.7774H22.7585V21.8303H22.7843V21.887H22.8101V21.9702H22.8396V22.0496H22.8654V22.1328H22.8912V22.1857H22.917L22.9429 22.3483H22.9687L22.9945 22.4806H23.0498V22.5336V22.6167H23.0756L23.1014 22.7226H23.1272V22.8058H23.153L23.1788 22.9117H23.2046V22.9949H23.2341V23.0478H23.2599V23.1007H23.2857C23.2857 23.1537 23.3189 23.2104 23.3373 23.2633H23.3631V23.3427H23.4184L23.4737 23.5053H23.4995V23.5582H23.5253L23.5511 23.6679L23.6028 23.6944V23.7473L23.6544 23.804V23.8569H23.6839V23.9099H23.7097V23.9628L23.7613 23.9893V24.046L23.8129 24.0989L23.8387 24.2048L23.894 24.2351L23.9198 24.3409L23.9714 24.3674L23.9972 24.477L24.0488 24.5035L24.0783 24.6094L24.13 24.6396V24.6926L24.1816 24.719V24.772L24.2332 24.7984V24.8552L24.2885 24.8816V24.9346L24.3401 24.961V25.014L24.3917 25.0442V25.0971L24.4433 25.1236V25.1765L24.5244 25.2295V25.29L24.576 25.3164V25.3694L24.6535 25.4223V25.479L24.7346 25.532V25.5849L24.812 25.6378V25.6946L24.8931 25.7475V25.8004L24.9963 25.8836V25.9365L25.129 26.0424V26.0991L25.2839 26.2315V26.2844L25.4682 26.447V26.5037L25.9438 26.9612C26.1617 27.2047 26.3984 27.4298 26.6516 27.6342L26.7585 27.7704H26.8101L26.9171 27.9027H26.9687L27.0461 28.0124H27.0977L27.1788 28.1182H27.2304L27.282 28.2014H27.3373L27.389 28.2808H27.4406L27.4664 28.3337H27.5217L27.5733 28.4169H27.6249L27.6507 28.4699H27.7023V28.4963L27.8092 28.4699V28.4963H27.8424L27.8682 28.5493H27.9235L27.9493 28.606H28.0009L28.0267 28.6589H28.0784L28.1042 28.7119H28.1595L28.1853 28.7648L28.2627 28.795V28.8215L28.3696 28.848L28.3954 28.9009L28.4986 28.9274L28.5281 28.9803L28.683 29.037L28.7088 29.09L28.8673 29.1429L28.8931 29.1958L29 29.2261L29.0516 29.279H29.1032V29.3055H29.1585V29.332H29.2102V29.3584H29.2618V29.3849L29.3687 29.4114V29.4492H29.4203V29.4756H29.4719V29.5021H29.5235V29.5286H29.5788V29.555H29.6304V29.5815H29.6857V29.608H29.741V29.6382L29.8701 29.6647V29.6912L29.977 29.7176V29.7441H30.0544V29.7706H30.106V29.797H30.1871V29.8273L30.2903 29.8575V29.884H30.3715V29.9105H30.4489V29.9369H30.5005V29.9634H30.5816V29.9899H30.6332V30.0163L30.7917 30.0428V30.073H30.8692V30.0995H30.9466V30.126H31.0277V30.1524H31.1051V30.1789H31.1862V30.2054H31.2636H31.341V30.2356H31.448V30.2621H31.5291V30.2886L31.8203 30.3415V30.368H31.9235V30.3944L32.1337 30.4209V30.4512L32.3696 30.4776V30.5041L33.6858 30.7196H33.9733C34.4174 30.788 34.8674 30.8057 35.3153 30.7725H35.8683V30.7461H36.2074V30.7196H36.4987V30.6931H36.6904V30.6667H36.9005C37.1254 30.5986 37.4166 30.5721 37.6378 30.5041L37.8996 30.4776V30.4512L38.1097 30.4209V30.3944H38.213V30.368H38.3199V30.3415H38.4231V30.315H38.5337V30.2886H38.6111V30.2621H38.718V30.2356H38.7955V30.2054H38.9024H38.9798V30.1789L39.3226 30.0995V30.073H39.3743V30.0428L39.6102 29.9899V29.9634L39.7429 29.9369V29.9105H39.7945V29.884L39.9531 29.8575V29.8273L40.0563 29.8008V29.7743H40.1374V29.7479L40.2406 29.7214V29.6949H40.3217V29.6685H40.377V29.642H40.4286V29.6118L40.5872 29.5588V29.5324H40.6646V29.5059L40.8231 29.4529V29.4227H40.8747V29.3962H40.93V29.3698L41.0849 29.3168L41.1107 29.2639H41.166L41.2176 29.2072H41.2692V29.1807H41.3245V29.1542H41.3761L41.4019 29.1013L41.5604 29.0484L41.5863 28.9917H41.6379V28.9652H41.6895L41.7153 28.9123L41.8222 28.8858L41.848 28.8328H41.8996V28.8064H41.9549L41.9807 28.7497H42.0323L42.0581 28.6967H42.1098L42.1392 28.6438H42.1909L42.2167 28.5871H42.2683L42.2941 28.5341H42.3494V28.5077L42.4268 28.4812L42.4526 28.4283H42.5042L42.5595 28.3451H42.589L42.6148 28.2922H42.6664L42.7217 28.2128H42.7734L42.825 28.1296H42.8766L42.9319 28.0502H42.9835L43.0609 27.9405H43.1125L43.1936 27.8346H43.2452L43.3522 27.6985H43.4038L43.507 27.5662C43.7615 27.3605 43.9994 27.1342 44.2185 26.8894L44.5872 26.5415V26.4848L44.7973 26.2957V26.2428L44.9558 26.1105V26.0462L45.0849 25.9403V25.8874L45.1918 25.8042V25.7513L45.295 25.6681V25.6151L45.3761 25.5622V25.5093L45.4535 25.4526V25.3996L45.531 25.3467V25.29L45.5863 25.2635V25.2068L45.6637 25.1539V25.1009L45.7153 25.0744L45.7411 24.9913H45.7706V24.9383L45.8222 24.9119V24.8589L45.8738 24.8287L45.8996 24.7493H45.9254V24.6963L45.9807 24.6699V24.6132L46.0324 24.5867V24.5338H46.0582V24.4808L46.1098 24.4544L46.1356 24.3447L46.1909 24.3182V24.2653H46.2167V24.2086L46.2683 24.1821L46.3199 24.0233L46.3752 23.9931L46.401 23.8872H46.4268V23.8343H46.4526V23.7775L46.5042 23.7246V23.6717L46.5559 23.6452L46.5854 23.5356H46.6112V23.4826H46.6443L46.6959 23.32H46.7218V23.2406H46.7476V23.1877H46.7734V23.131H46.8029L46.8545 22.9722H46.8803V22.889H46.9061V22.8361H46.9319V22.7831H46.9577V22.7264H46.9835V22.6432H47.013V22.5903H47.0388V22.5071H47.0646V22.4542H47.0904L47.1162 22.318H47.142V22.2386H47.1678V22.1857H47.1973V22.1025H47.2231V22.0231H47.2489V21.9437H47.2748V21.8605H47.3006V21.7811H47.3264V21.7282H47.3522V21.6185H47.3817V21.5391H47.4112V21.456H47.437V21.3766H47.4628V21.2972H47.4886L47.5402 20.9984H47.566C47.566 20.9266 47.5844 20.8548 47.5918 20.7829C47.6655 20.5636 47.7098 20.2838 47.7761 20.057V19.8944H47.8056V19.7582H47.8314V19.6184H47.8572V19.4028H47.8831V19.2138H47.9089V18.9718H47.9347V18.7033H47.9605V18.3252C47.9885 18.1567 47.9972 17.9854 47.9863 17.8148C48.0124 17.4843 48.0012 17.1519 47.9531 16.8241H47.942ZM46.1282 18.1437V18.5218H46.1024V18.7903H46.0766V19.0361H46.0508V19.2251H46.025V19.3839H45.9992V19.573H45.9734C45.9734 19.6637 45.9549 19.7545 45.9439 19.8452H45.9181V19.9965H45.907L45.8812 20.2384H45.8554V20.3216H45.8296V20.4275H45.8038C45.8038 20.4993 45.7853 20.5712 45.778 20.643L45.3282 21.9664H45.3024V22.0193H45.2766L45.2508 22.1555H45.225L45.1734 22.3143H45.1439V22.371H45.1181V22.4504H45.0923L45.0406 22.613H45.0148V22.6432H44.989V22.6962H44.9632V22.7491H44.9337V22.8058L44.8821 22.8587V22.9117L44.8305 22.9381V22.9949L44.7789 23.0478V23.1007H44.7494V23.1537L44.6978 23.1839V23.2368H44.672V23.2898L44.6204 23.3162L44.5946 23.4259L44.5393 23.4524V23.5053H44.5135V23.5582L44.4618 23.5885L44.436 23.6679H44.4102L44.3844 23.7738L44.3291 23.804V23.8569H44.3033L44.2775 23.9363L44.2259 23.9628V24.0195L44.1485 24.0725V24.1254L44.0932 24.1519V24.2048L44.0158 24.2615V24.3145L43.9346 24.3674V24.4241L43.8572 24.477V24.5338L43.754 24.6132V24.6699L43.6471 24.7493V24.8022L43.5144 24.9119V24.9648L43.3042 25.1539V25.2068L42.9909 25.5055L42.5153 26.0159H42.4637L42.3051 26.205H42.2535L42.1503 26.3411H42.095L42.0176 26.447H41.966L41.8849 26.5566H41.8333L41.7816 26.636H41.73L41.6747 26.7192H41.6231L41.5715 26.7986H41.5199L41.4904 26.8516H41.4388L41.3872 26.9347H41.3356L41.3097 26.9877L41.2286 27.0141V27.0406H41.177L41.1512 27.0936L41.0701 27.12V27.1503L40.9669 27.1767L40.9411 27.2297L40.86 27.2561V27.2826H40.8084V27.3091H40.7457L40.7199 27.3658L40.5614 27.4187L40.5356 27.4717H40.4839L40.4286 27.5246H40.377V27.5586H40.3254L40.2996 27.6116H40.2443L40.1927 27.6645H40.1411V27.691H40.0895V27.7174H40.0342V27.7439H40.0084V27.7741H39.9567V27.8006L39.7982 27.8535V27.88H39.7208V27.9065H39.6397V27.9367L39.4849 27.9934V28.0199H39.4038V28.0464H39.3521V28.0729H39.271V28.0993L39.1641 28.1258V28.1523L39.0056 28.1825V28.209H38.954V28.2354L38.7955 28.2619V28.2884H38.7438V28.3148L37.5604 28.6665H37.4277C37.2213 28.7345 36.9374 28.761 36.7199 28.8291H36.5097V28.8555H36.3217V28.882H36.0342V28.9085H35.6655C35.273 28.9652 34.8746 28.9652 34.4821 28.9085H34.1097V28.882H33.848V28.8555H33.6378V28.8291H33.4535V28.8026H33.2692L32.0857 28.5304L31.0092 28.1523V28.1258H30.9539V28.0993H30.8765V28.0729H30.8249V28.0464H30.7438V28.0199L30.6406 27.9934V27.9632H30.5632V27.9367H30.5079V27.9103L30.4046 27.8838V27.8573H30.3493V27.8309H30.2977V27.8044H30.2461V27.7779H30.1945V27.7477H30.1392V27.7212L30.036 27.6947V27.6683H29.9844V27.6418H29.9291V27.6153H29.8774V27.5889H29.8258L29.7742 27.5322H29.7189L29.6931 27.4792L29.5899 27.4528V27.4263H29.5346L29.5088 27.3734H29.4572V27.3469H29.4056L29.3797 27.2902L29.2728 27.2637V27.2372H29.247V27.2108L29.8258 26.6436V26.5907L30.0618 26.3751V26.3222L30.1134 26.292V26.2655L30.2203 26.1861V26.1332L30.3493 26.0235V25.9706L30.4046 25.9441L30.4304 25.8609L30.5337 25.7815V25.7286L30.6148 25.6719V25.6189L30.6922 25.566V25.5131L30.7733 25.4563V25.4034L30.8507 25.3505V25.29L30.9023 25.2635V25.2068L30.9834 25.1539V25.1009L31.0351 25.0744L31.0609 24.9913H31.0867V24.9383L31.1383 24.9119L31.1678 24.8287H31.1936L31.2194 24.7228L31.271 24.6963L31.2968 24.6132H31.3226V24.5602H31.3484V24.5073L31.4037 24.4808L31.4295 24.3712L31.4811 24.3447V24.2918H31.5069V24.2388L31.5586 24.2086L31.6139 24.0498L31.6655 24.0233V23.9666L31.7171 23.9137V23.8607H31.7429V23.8078H31.7687V23.7511H31.7982V23.6981H31.824V23.6452H31.8498V23.5923L31.9014 23.562L31.953 23.373H31.9825V23.32H32.0083V23.2671H32.0341V23.2142H32.0599L32.1116 23.0516H32.1374L32.1632 22.9155H32.1927L32.2185 22.8096H32.2443V22.7264H32.2664V22.6735H32.2922V22.5941H32.318V22.5373H32.3438V22.4579H32.3696V22.405H32.3991V22.3218H32.4249V22.2651H32.4507L32.4765 22.1025H32.5023V22.0496H32.5281L32.554 21.887H32.5834V21.8076H32.6092V21.7282H32.6351V21.645H32.6609V21.5656H32.6867V21.4824H32.7125V21.3766H32.7383L32.7641 21.1875H32.7936V21.1308H32.8194C32.8194 21.0287 32.8526 20.9304 32.871 20.8321H32.8968V20.6997H32.9226V20.6166H32.9484V20.4804C33.0111 20.2838 33.048 20.0116 33.107 19.8074V19.6184H33.1328V19.4331H33.1586V19.2402H33.1844C33.1844 19.0777 33.2028 18.9151 33.2139 18.7525H33.2397C33.2397 18.5483 33.2397 18.3403 33.2655 18.1324V17.8375C33.3023 17.6063 33.3109 17.3713 33.2913 17.138H33.2655C33.2212 16.9792 33.2655 16.7372 33.2397 16.5973V16.2192H33.2139V15.9772H33.1844V15.7352H33.1586V15.5461H33.1328V15.3835H33.107V15.1945H33.0811V15.0811H33.0553V14.9185H33.0295V14.7823H33.0037V14.6765H32.9742V14.5404H32.9484L32.8968 14.1887H32.871V14.1093H32.8452L32.8194 13.8938H32.7936L32.7641 13.7047H32.7383C32.7383 13.614 32.7051 13.5232 32.6867 13.4363H32.6609V13.3531H32.6351V13.2737H32.6092V13.1905H32.5834V13.1073H32.554V13.0279H32.5281V12.9447H32.5023V12.8918H32.4765L32.4507 12.7292H32.4249V12.6763H32.3991V12.5969H32.3696L32.3438 12.4608H32.318V12.4078H32.2922V12.3246H32.2664L32.2406 12.2188H32.2148V12.1356H32.189L32.1595 12.0297H32.1337V11.9768H32.1079V11.8936H32.0821V11.8407H32.0563L32.0304 11.7348H32.0046V11.6781H31.9788V11.6251H31.9493V11.5722H31.9235V11.5155H31.8977V11.4626H31.8719L31.8461 11.3567H31.8203V11.3H31.7945V11.247H31.765V11.1941H31.7392V11.1412L31.6876 11.0844V11.0315L31.636 11.005L31.5844 10.8425L31.5291 10.816L31.4775 10.6534L31.4258 10.6269V10.574H31.4V10.5211L31.3447 10.4946L31.3189 10.4114H31.2931L31.2673 10.3055L31.2157 10.2791V10.2224L31.1641 10.1959V10.143L31.1088 10.1165V10.0598L31.0572 10.0333V9.98037L31.0056 9.9539V9.90097H30.9797L30.9503 9.81778L30.8986 9.79131V9.73838L30.8212 9.68544V9.62873L30.7696 9.60226V9.54933L30.6885 9.49639V9.44346L30.6111 9.38674V9.33381L30.5042 9.2544L30.4784 9.17122L30.4268 9.14475V9.09182L30.294 8.98216V8.92923L30.165 8.82336V8.76664L30.0323 8.66077V8.60405L29.7705 8.36207V8.30913L29.6894 8.2562L29.3503 7.87809H29.3171V7.85162L29.3982 7.82515V7.79869H29.4498L29.4756 7.74197L29.5825 7.7155L29.6083 7.66257H29.6599L29.7115 7.60963H29.7668V7.58316H29.8185V7.55291H29.8701L29.8959 7.49998H29.9512L30.0028 7.44704H30.0544V7.42058H30.106V7.39411H30.1613V7.36764H30.2129V7.3374L30.3715 7.28446V7.25799H30.4489V7.23153L30.6074 7.17859V7.14078H30.659V7.11431L30.7917 7.08784V7.06137H30.8433V7.03491H30.9208V7.00844H30.9761V6.98197L31.1309 6.9555V6.92525H31.1862V6.89879L31.341 6.87232V6.84585H31.3963V6.81938L32.683 6.44127H32.8157C32.9853 6.38834 33.2176 6.35809 33.3945 6.30516H33.6047C34.1232 6.20388 34.6519 6.16832 35.1788 6.19929L36.1263 6.22576V6.25222L36.5724 6.27869V6.30516H36.7567C36.8858 6.34675 37.0775 6.37322 37.2028 6.41481L37.4683 6.44127V6.46774L37.8074 6.52446V6.55093L38.0987 6.60386V6.63033H38.165V6.6568H38.2719V6.68326H38.3494V6.70973H38.4268V6.76267H38.5337H38.6111V6.78914H38.6922V6.8156H38.7696V6.84207L38.9282 6.86854V6.89501H38.9798V6.92147L39.1383 6.95172V6.97819H39.1899V7.00466H39.271V7.03113L39.3779 7.05759V7.08406H39.4554V7.11053L39.5623 7.137V7.16725H39.6397V7.19371H39.6913V7.22018L39.7982 7.24665V7.27312H39.8498V7.29958H39.9051V7.32605H39.9567V7.3563H40.0084V7.38277H40.06V7.40924L40.1669 7.4357V7.46217H40.2185V7.48864H40.2701V7.51889H40.3254V7.54536H40.377L40.4286 7.60207H40.4803L40.5097 7.655L40.613 7.68147L40.6388 7.73441L40.7973 7.79112L40.8231 7.84406H40.8747V7.87052H40.93L40.9558 7.92346H41.0075L41.0333 7.98018H41.0849L41.1107 8.03311L41.2176 8.05958L41.2692 8.13898H41.3245L41.3503 8.1957L41.4277 8.22217V8.24863H41.4793L41.5051 8.30157H41.5604L41.5863 8.35451L41.6637 8.38097L41.7153 8.46416H41.7706L41.8222 8.54356H41.8517L41.9328 8.65321H41.9844L42.0618 8.75908H42.1171L42.2204 8.8952H42.272L42.4305 9.08425H42.4821L42.5374 9.16366L42.6148 9.21659C42.7033 9.30734 42.7549 9.40565 42.8766 9.46236V9.5153C42.9872 9.54555 42.9724 9.60605 43.0351 9.67789L43.3522 9.97281V10.0257L43.5365 10.1883V10.2413L43.5881 10.2715V10.298L43.6655 10.3509V10.4039L43.7724 10.487V10.5438L43.8241 10.5702V10.5967L43.8757 10.6232V10.6761L43.9568 10.7328L43.9826 10.8122L44.0342 10.8387V10.8916L44.0858 10.9219V10.9748L44.1669 11.0277V11.0807L44.2185 11.1109L44.2443 11.1903H44.2701V11.2433L44.3217 11.2697L44.3512 11.3529H44.377V11.4058L44.4287 11.4323V11.4852L44.4803 11.5117V11.5684H44.5061V11.6214L44.5614 11.6478L44.5872 11.7575L44.6388 11.7839V11.8369H44.6646V11.8898L44.7162 11.9163V11.973L44.7715 12.0259V12.0789H44.801V12.1318L44.8526 12.1621V12.215L44.9042 12.2679V12.3209H44.93V12.3776H44.9595V12.4343H44.9853V12.4872H45.0112V12.5402H45.037V12.5969H45.0628V12.6498H45.0886L45.1402 12.8124H45.1697L45.1955 12.9447H45.2213L45.2471 13.0544H45.2729V13.1338H45.2987V13.1905H45.3245V13.2699H45.3503L45.3798 13.406H45.4056V13.459H45.4314V13.5384H45.4572V13.5913H45.483L45.5347 13.8371H45.5642V13.89H45.59V13.9959H45.6158V14.0526H45.6416V14.1585H45.6674V14.2417H45.6932V14.3248H45.719C45.719 14.3891 45.719 14.4496 45.7448 14.5139H45.7743C45.7743 14.6122 45.8075 14.7105 45.8259 14.8088H45.8517C45.9291 15.2399 46.0102 15.6709 46.0877 16.1019C46.0877 16.2759 46.0877 16.446 46.1135 16.6162H46.1393V16.9943C46.1938 17.3754 46.1938 17.7626 46.1393 18.1437H46.1282Z" fill="white"/>
</svg>
