<svg width="24" height="23" viewBox="0 0 24 23" fill="none" xmlns="http://www.w3.org/2000/svg">
<mask id="mask0_69_9254" style="mask-type:alpha" maskUnits="userSpaceOnUse" x="0" y="0" width="24" height="23">
<path fill-rule="evenodd" clip-rule="evenodd" d="M9.71148 0.83545C9.7888 0.83545 9.86079 0.874892 9.9024 0.940063L12.753 5.40407C12.7946 5.46924 12.8666 5.50868 12.9439 5.50868L15.0782 5.50868C15.2033 5.50868 15.3047 5.40726 15.3047 5.28215V1.06198C15.3047 0.936872 15.4061 0.83545 15.5312 0.83545L18.5585 0.835449C18.6836 0.835449 18.785 0.936871 18.785 1.06198V8.32763C18.785 8.51415 18.9978 8.62075 19.1472 8.50906L22.7981 5.77942C22.9475 5.66773 23.1603 5.77433 23.1603 5.96085V9.42019C23.1603 9.49285 23.1254 9.5611 23.0666 9.60371L18.8788 12.6346C18.8199 12.6772 18.785 12.7454 18.785 12.8181V15.0958C18.785 15.2209 18.8865 15.3223 19.0116 15.3223H22.9337C23.0589 15.3223 23.1603 15.4237 23.1603 15.5488V18.2588C23.1603 18.3839 23.0589 18.4853 22.9337 18.4853H16.5998C16.4244 18.4853 16.3156 18.676 16.4047 18.827L18.5834 22.519C18.6725 22.67 18.5636 22.8607 18.3883 22.8607H14.8898C14.8082 22.8607 14.7329 22.8168 14.6927 22.7457L12.3456 18.6002C12.3054 18.5292 12.2301 18.4853 12.1485 18.4853H9.13092C9.00581 18.4853 8.90439 18.5867 8.90439 18.7119V22.6341C8.90439 22.7592 8.80296 22.8607 8.67785 22.8607H6.03482C5.90971 22.8607 5.80829 22.7592 5.80829 22.6341V18.4853V15.7086C5.80829 15.5356 5.62215 15.4265 5.47115 15.5109L0.491926 18.2968C0.340925 18.3812 0.154785 18.2721 0.154785 18.0991V14.5938C0.154785 14.5103 0.200742 14.4335 0.274369 14.3941L5.68871 11.4944C5.76233 11.455 5.80829 11.3782 5.80829 11.2947V9.00639C5.80829 8.88128 5.70687 8.77985 5.58176 8.77985H0.381318C0.256208 8.77985 0.154785 8.67843 0.154785 8.55332L0.154785 5.73522C0.154785 5.6101 0.256208 5.50868 0.381319 5.50868L5.80829 5.50868L8.48257 5.50868C8.66321 5.50868 8.77118 5.30762 8.67142 5.15704L6.04132 1.1871C5.94155 1.03651 6.04953 0.83545 6.23017 0.83545L9.71148 0.83545ZM12.3507 8.77985H9.13092C9.00581 8.77985 8.90439 8.88128 8.90439 9.00639V15.0958C8.90439 15.2209 9.00581 15.3223 9.13092 15.3223H12.3508C14.1574 15.3223 15.622 13.8577 15.622 12.0511C15.622 10.2444 14.1574 8.77985 12.3507 8.77985Z" fill="#5C17E6"/>
</mask>
<g mask="url(#mask0_69_9254)">
<path fill-rule="evenodd" clip-rule="evenodd" d="M9.8356 0.83545L12.8198 5.50868L15.3047 5.50868V0.83545L18.785 0.835449V8.77985L23.1603 5.50863V9.53588L18.785 12.7024V15.3223H23.1603V18.4853H16.2031L18.785 22.8607H14.7577L12.2805 18.4853H8.90439V22.8607H5.80829V18.4853V15.3223L0.154785 18.4854V14.4581L5.80829 11.4303V8.77985H0.154785L0.154785 5.50868L5.80829 5.50868L8.90439 5.50868L5.80835 0.83545L9.8356 0.83545ZM12.3507 8.77985H8.90439V15.3223H12.3508C14.1574 15.3223 15.622 13.8577 15.622 12.0511C15.622 10.2444 14.1574 8.77985 12.3507 8.77985Z" fill="white"/>
<path fill-rule="evenodd" clip-rule="evenodd" d="M27.9779 0.00390625H12.8454V14.9961H11.8667V15.3212H12.9426L27.9779 15.3212V0.00390625Z" fill="white"/>
<rect x="8.9043" y="15.3208" width="15.4173" height="8.20784" fill="white"/>
<rect x="-6.51514" y="8.77832" width="15.4173" height="16.1301" fill="white"/>
</g>
</svg>
