<svg width="34" height="33" viewBox="0 0 34 33" fill="none" xmlns="http://www.w3.org/2000/svg">
<mask id="mask0_247_1273" style="mask-type:alpha" maskUnits="userSpaceOnUse" x="0" y="0" width="34" height="33">
<path fill-rule="evenodd" clip-rule="evenodd" d="M13.987 1.05267e-06C14.1002 1.04853e-06 14.2055 0.0577274 14.2664 0.15311L18.4385 6.68655C18.4994 6.78193 18.6048 6.83966 18.718 6.83966L21.8416 6.83966C22.0247 6.83966 22.1732 6.69122 22.1732 6.50811V0.331551C22.1732 0.148441 22.3216 7.31103e-07 22.5047 7.04032e-07L26.9354 4.90154e-08C27.1185 2.1945e-08 27.2669 0.14844 27.2669 0.33155V10.9654C27.2669 11.2384 27.5784 11.3944 27.797 11.231L33.1403 7.23591C33.359 7.07244 33.6704 7.22846 33.6704 7.50144V12.5645C33.6704 12.6708 33.6194 12.7707 33.5333 12.8331L27.4041 17.269C27.3179 17.3313 27.2669 17.4312 27.2669 17.5376V20.8712C27.2669 21.0543 27.4154 21.2027 27.5985 21.2027H33.3389C33.522 21.2027 33.6704 21.3511 33.6704 21.5343V25.5005C33.6704 25.6836 33.522 25.832 33.3389 25.832H24.0686C23.812 25.832 23.6526 26.1111 23.7831 26.3321L26.9717 31.7357C27.1022 31.9567 26.9428 32.2357 26.6862 32.2357H21.5659C21.4465 32.2357 21.3362 32.1715 21.2774 32.0675L17.8422 26.0002C17.7834 25.8963 17.6732 25.832 17.5537 25.832H13.1373C12.9542 25.832 12.8058 25.9805 12.8058 26.1636V31.9042C12.8058 32.0873 12.6573 32.2357 12.4742 32.2357H8.60592C8.42281 32.2357 8.27437 32.0873 8.27437 31.9042V25.832V21.7681C8.27437 21.5149 8.00194 21.3551 7.78094 21.4788L0.493434 25.556C0.27243 25.6797 0 25.5199 0 25.2667V20.1364C0 20.0142 0.0672615 19.9019 0.17502 19.8442L8.09935 15.6002C8.20711 15.5425 8.27437 15.4302 8.27437 15.308V11.9588C8.27437 11.7757 8.12593 11.6273 7.94282 11.6273H0.33155C0.14844 11.6273 0 11.4788 0 11.2957L0 7.17121C0 6.9881 0.14844 6.83966 0.33155 6.83966L8.27437 6.83966L12.1884 6.83966C12.4528 6.83966 12.6108 6.54539 12.4648 6.325L8.61542 0.514665C8.46941 0.29427 8.62745 1.24883e-06 8.89182 1.23916e-06L13.987 1.05267e-06ZM17.8498 11.6273H13.1373C12.9542 11.6273 12.8058 11.7757 12.8058 11.9588V20.8712C12.8058 21.0543 12.9542 21.2027 13.1373 21.2027H17.8498C20.494 21.2027 22.6375 19.0592 22.6375 16.415C22.6375 13.7708 20.494 11.6273 17.8498 11.6273Z" fill="#5C17E6"/>
</mask>
<g mask="url(#mask0_247_1273)">
<path fill-rule="evenodd" clip-rule="evenodd" d="M14.1687 1.04602e-06L18.5363 6.83966L22.1732 6.83966V7.53048e-07L27.2669 0V11.6273L33.6704 6.83958V12.7338L27.2669 17.3683V21.2027H33.6704V25.832H23.488L27.2668 32.2357H21.3726L17.747 25.832H12.8058V32.2357H8.27437V25.832V21.2027L0 25.8321V19.9379L8.27437 15.5065V11.6273H0L0 6.83966L8.27437 6.83966L12.8058 6.83966L8.27446 1.26175e-06L14.1687 1.04602e-06ZM17.8498 11.6273H12.8058V21.2027H17.8498C20.494 21.2027 22.6375 19.0592 22.6375 16.415C22.6375 13.7708 20.494 11.6273 17.8498 11.6273Z" fill="white"/>
</g>
</svg>
