<svg width="185" height="31" viewBox="0 0 185 31" fill="none" xmlns="http://www.w3.org/2000/svg">
<g clip-path="url(#clip0_17_8)">
<path fill-rule="evenodd" clip-rule="evenodd" d="M47.3488 16.0941L50.9784 23.8072H54.0636L50.1618 15.8672C51.4019 15.5649 52.3169 14.9977 52.9067 14.1659C53.5117 13.319 53.8141 12.0864 53.8141 11.058C53.8141 10.1809 53.6023 9.38687 53.1789 8.67607C52.7706 7.96527 52.143 7.39813 51.2961 6.97467C50.4642 6.55121 49.4434 6.33948 48.2336 6.33948H42.7891V23.8072H45.3751V16.0941H47.3488ZM48.2336 13.7349H45.3751V8.44921H48.2336C49.2166 8.44921 49.95 8.68363 50.4339 9.15247C50.9179 9.60617 51.1598 10.2414 51.1598 11.058C51.1598 11.8747 50.9104 12.525 50.4112 13.009C49.9274 13.4929 49.2014 13.7349 48.2336 13.7349ZM59.7086 23.8072V11.3076H57.1225V23.8072H59.7086ZM81.0646 6.33948V23.8072H78.4785V6.33948H81.0646ZM87.4772 20.3362V13.5434H89.2134V11.4337H87.4772V8.26368H84.8684V11.4337H83.3937V13.5434H84.8684V20.3362C84.8684 21.5613 85.1784 22.446 85.7984 22.9905C86.4185 23.535 87.3109 23.8072 88.4753 23.8072H90.517V21.6521H88.929C88.3997 21.6521 88.0216 21.5538 87.7947 21.3572C87.583 21.1454 87.4772 20.8051 87.4772 20.3362ZM130.135 12.6385C130.906 12.1913 131.632 11.852 131.632 11.852C131.632 11.852 133.016 11.3076 133.878 11.3076V13.5434C132.834 13.5434 131.709 14.0089 130.906 14.7886C130.392 15.3027 130.135 15.958 130.135 17.2284V23.8072H127.549V11.5117H130.135V12.6385ZM138.841 23.8072V11.3076H136.255V23.8072H138.841ZM123.584 15.9288C123.16 15.3096 122.859 14.8687 122.152 14.7289C122.874 14.4476 123.111 14.1115 123.491 13.5749C123.541 13.5041 123.593 13.4298 123.65 13.3517C124.134 12.6815 124.376 11.8437 124.376 10.8383C124.376 10.0006 124.179 9.24658 123.786 8.57635C123.393 7.88937 122.81 7.34481 122.039 6.94269C121.268 6.54055 120.345 6.33948 119.271 6.33948H113.26V23.8072H119.566C120.61 23.8072 121.525 23.606 122.311 23.2039C123.098 22.7851 123.695 22.2237 124.103 21.5201C124.527 20.7995 124.739 19.9952 124.739 19.1072C124.739 18.0684 124.444 17.1384 123.854 16.3173C123.756 16.1816 123.667 16.0516 123.584 15.9288ZM119.045 13.6784H115.846V8.67687H119.045C119.892 8.67687 120.549 8.90308 121.018 9.35548C121.502 9.79112 121.744 10.4027 121.744 11.1902C121.744 11.9945 121.502 12.6144 121.018 13.0501C120.549 13.469 119.892 13.6784 119.045 13.6784ZM121.404 20.766C120.905 21.2352 120.217 21.4697 119.34 21.4697H115.846V16.0158H119.249C120.126 16.0158 120.829 16.2672 121.359 16.7698C121.888 17.2724 122.152 17.9511 122.152 18.8056C122.152 19.6434 121.903 20.2969 121.404 20.766ZM138.841 8.92532V6.33948H136.255V8.92532H138.841ZM59.7087 6.33948V8.92532H57.1226V6.33948H59.7087ZM147.291 23.7879C148.958 23.7879 150.476 23.1517 151.616 22.1091V23.7879H154.202V6.33948H151.616V12.6499C150.476 11.6073 148.958 10.9712 147.291 10.9712C143.753 10.9712 140.883 13.8402 140.883 17.3795C140.883 20.9187 143.753 23.7879 147.291 23.7879ZM147.291 21.2013C149.402 21.2013 151.113 19.4902 151.113 17.3795C151.113 15.2688 149.402 13.5577 147.291 13.5577C145.181 13.5577 143.469 15.2688 143.469 17.3795C143.469 19.4902 145.181 21.2013 147.291 21.2013ZM104.774 17.3988C104.774 20.9379 101.906 23.8072 98.3662 23.8072C94.8274 23.8072 91.958 20.9379 91.958 17.3988C91.958 13.8595 94.8274 10.9905 98.3662 10.9905C101.906 10.9905 104.774 13.8595 104.774 17.3988ZM102.188 17.3988C102.188 19.5095 100.476 21.2206 98.3662 21.2206C96.2553 21.2206 94.5441 19.5095 94.5441 17.3988C94.5441 15.2881 96.2553 13.577 98.3662 13.577C100.476 13.577 102.188 15.2881 102.188 17.3988ZM72.5016 10.4308H75.0875V23.7879H72.5016V22.3566C71.3998 23.2515 69.9949 23.7879 68.4646 23.7879C64.9257 23.7879 62.0563 20.9187 62.0563 17.3795C62.0563 13.8403 64.9257 10.9712 68.4646 10.9712C69.9949 10.9712 71.3998 11.5075 72.5016 12.4024V10.4308ZM68.4646 21.2013C70.575 21.2013 72.2861 19.4902 72.2861 17.3795C72.2861 15.2688 70.575 13.5577 68.4646 13.5577C66.3537 13.5577 64.6426 15.2688 64.6426 17.3795C64.6426 19.4902 66.3537 21.2013 68.4646 21.2013ZM166.428 22.9124C165.478 23.4688 164.372 23.7879 163.192 23.7879C159.653 23.7879 156.784 20.9187 156.784 17.3795C156.784 13.8402 159.653 10.9712 163.192 10.9712C164.919 10.9712 166.487 11.6547 167.64 12.7659V10.9905H169.601L169.613 23.9058H169.609C169.483 27.3345 166.664 30.0758 163.206 30.0758C160.196 30.0758 157.668 27.9993 156.982 25.2003H159.703C160.294 26.548 161.64 27.4893 163.206 27.4893C165.275 27.4893 166.962 25.8429 167.025 23.7879H167.038L167.025 22.5351C166.837 22.676 166.641 22.8067 166.437 22.9265L166.428 22.9124ZM167.014 17.3795C167.014 19.4902 165.302 21.2013 163.192 21.2013C161.081 21.2013 159.371 19.4902 159.371 17.3795C159.371 15.2688 161.081 13.5577 163.192 13.5577C165.302 13.5577 167.014 15.2688 167.014 17.3795ZM184.409 20.0692C183.393 22.2648 181.17 23.7879 178.591 23.7879C175.052 23.7879 172.183 20.9187 172.183 17.3795C172.183 13.8402 175.052 10.9712 178.591 10.9712C182.131 10.9712 185 13.8402 185 17.3795C185 17.7657 184.965 18.1438 184.899 18.5111H182.242H178.191H174.939C175.422 20.0694 176.874 21.2013 178.591 21.2013C179.654 21.2013 180.613 20.7683 181.306 20.0692H184.409ZM174.914 16.331H182.267C181.811 14.7301 180.339 13.5578 178.591 13.5578C176.844 13.5578 175.37 14.7301 174.914 16.331Z" fill="white"/>
<path fill-rule="evenodd" clip-rule="evenodd" d="M13.0879 0.151179C13.0441 0.0737453 12.962 0.0258798 12.873 0.0258798L8.03442 0.02588C7.84325 0.02588 7.72455 0.233744 7.82171 0.398392L11.0901 5.93708C11.1873 6.10173 11.0686 6.30959 10.8774 6.30959H7.60181H0.246991C0.110582 6.30959 1.78677e-06 6.42016 1.72992e-06 6.55658L0 10.4611C0 10.5872 0.0945899 10.6913 0.216718 10.7062H16.4369V10.7082C18.8487 10.7286 20.7975 12.69 20.7975 15.1066C20.7975 16.2305 20.376 17.256 19.6824 18.0334C19.528 18.2067 19.6432 18.5114 19.8753 18.5114H24.8036C24.94 18.5114 25.0506 18.4009 25.0506 18.2645V15.1994C25.0506 15.1105 25.0984 15.0284 25.1758 14.9845L30.8083 11.7956C30.8858 11.7517 30.9336 11.6696 30.9336 11.5806V6.74205C30.9336 6.55087 30.7257 6.43217 30.5611 6.52934L25.4231 9.56129C25.2585 9.65845 25.0506 9.53976 25.0506 9.34859V0.272867C25.0506 0.136459 24.94 0.0258789 24.8036 0.0258789L20.6178 0.0258795C20.4814 0.0258795 20.3709 0.13646 20.3709 0.272868V6.06261C20.3709 6.19901 20.2603 6.30959 20.1239 6.30959H16.7187C16.6296 6.30959 16.5476 6.26172 16.5037 6.18429L13.0879 0.151179ZM25.2443 19.4995H16.626C16.5508 19.5032 16.475 19.5051 16.3988 19.5051H12.2473C12.1109 19.5051 12.0004 19.3946 12.0004 19.2582V11.9412C12.0004 11.8048 11.8898 11.6942 11.7534 11.6942H7.8488C7.71238 11.6942 7.60181 11.8048 7.60181 11.9412V13.8952C7.60181 13.9842 7.55394 14.0663 7.47651 14.1102L0.125302 18.2722C0.0478673 18.3161 1.83285e-06 18.3983 1.83285e-06 18.4871V23.3257C1.83285e-06 23.517 0.207866 23.6356 0.372513 23.5384L7.2293 19.4923C7.39395 19.3951 7.60181 19.5137 7.60181 19.705V23.7582V29.3943C7.60181 29.5309 7.71238 29.6414 7.8488 29.6414H12.0345C12.171 29.6414 12.2815 29.5309 12.2815 29.3943V24.0052C12.2815 23.8688 12.3921 23.7582 12.5285 23.7582H16.1605C16.2494 23.7582 16.3316 23.8061 16.3755 23.8835L19.5644 29.5161C19.6083 29.5936 19.6904 29.6414 19.7793 29.6414H24.618C24.8091 29.6414 24.9278 29.4335 24.8306 29.2689L21.7986 24.1307C21.7014 23.9661 21.8201 23.7582 22.0114 23.7582H30.6866C30.823 23.7582 30.9336 23.6477 30.9336 23.5111V19.7522C30.9336 19.6158 30.823 19.5051 30.6866 19.5051H25.2975C25.2793 19.5051 25.2614 19.5032 25.2443 19.4995Z" fill="white"/>
</g>
<defs>
<clipPath id="clip0_17_8">
<rect width="185" height="30.1017" fill="white"/>
</clipPath>
</defs>
</svg>
