<svg xmlns="http://www.w3.org/2000/svg" viewBox="0 0 169.56 167.67"><path fill="#d8d8d8" d="M56.59.39v54.83c1.28-1 2.06-1.51 2.71-2.16Q85 27.61 110.8 2.15a6.76 6.76 0 0 1 4.06-2.07c17.68-.13 35.35-.07 53 0a8.87 8.87 0 0 1 1.42.3c.08 1 .24 2.08.24 3.15q0 52.65-.07 105.31a7.08 7.08 0 0 1-1.67 4.6q-26.3 26.25-52.79 52.28a23 23 0 0 1-2 1.53v-54.88c-1.39 1.14-2.15 1.67-2.8 2.31Q84.43 140.1 58.61 165.5a7.18 7.18 0 0 1-4.44 2.07c-17.17.14-34.35.09-51.53.08-.72 0-1.43-.14-2.39-.24C.16 166 0 164.83 0 163.63q0-52.29.08-104.56a7.62 7.62 0 0 1 1.8-4.91Q27.71 28.27 53.8 2.61c.59-.61 1.31-1.05 2.79-2.22zm.19 55.73v55.31h55.86V56.12z"/></svg>