<svg width="24" height="24" viewBox="0 0 24 24" fill="none" xmlns="http://www.w3.org/2000/svg">
<path d="M4.92654 8.48121C4.9379 8.36833 4.92269 8.25435 4.88211 8.14841C4.84154 8.04246 4.77673 7.94748 4.69287 7.87106L2.96072 5.76894V5.45459H8.33705L12.4931 14.6392L16.1465 5.45459H21.2725V5.76894L19.7917 7.19786C19.7289 7.24631 19.6805 7.31089 19.6516 7.38471C19.6227 7.45853 19.6144 7.53881 19.6275 7.61699V18.1267C19.6144 18.2049 19.6227 18.2852 19.6516 18.359C19.6805 18.4328 19.7289 18.4974 19.7917 18.5458L21.2382 19.9757V20.291H13.9647V19.9766L15.4631 18.5115C15.6106 18.3632 15.6106 18.3196 15.6106 18.0933V9.59764L11.4453 20.2557H10.8833L6.03371 9.59764V16.7414C5.99383 17.0409 6.09305 17.3441 6.30261 17.5611L8.25081 19.9423V20.2557H2.72705V19.9423L4.67432 17.5611C4.77736 17.4536 4.85382 17.3234 4.89761 17.1811C4.94141 17.0388 4.95131 16.8882 4.92654 16.7414V8.48121Z" fill="white"/>
</svg>
