<svg width="22" height="19" viewBox="0 0 22 19" fill="none" xmlns="http://www.w3.org/2000/svg">
<g clip-path="url(#clip0_213:6617)">
<path d="M20.8657 0.0399971L12.3149 5.95449L13.8962 2.46502L20.8657 0.0399971Z" fill="#E2761B" stroke="#E2761B" stroke-linecap="round" stroke-linejoin="round"/>
<path d="M1.12579 0.0399971L9.60783 6.01051L8.10392 2.46502L1.12579 0.0399971Z" fill="#E4761B" stroke="#E4761B" stroke-linecap="round" stroke-linejoin="round"/>
<path d="M17.7891 13.7499L15.5117 16.9992L20.3844 18.2478L21.7852 13.8219L17.7891 13.7499Z" fill="#E4761B" stroke="#E4761B" stroke-linecap="round" stroke-linejoin="round"/>
<path d="M0.22345 13.8219L1.61564 18.2478L6.48829 16.9992L4.21095 13.7499L0.22345 13.8219Z" fill="#E4761B" stroke="#E4761B" stroke-linecap="round" stroke-linejoin="round"/>
<path d="M6.21328 8.25947L4.85547 10.1723L9.69375 10.3724L9.52188 5.53033L6.21328 8.25947Z" fill="#E4761B" stroke="#E4761B" stroke-linecap="round" stroke-linejoin="round"/>
<path d="M15.7782 8.25945L12.4267 5.47428L12.3149 10.3723L17.1446 10.1723L15.7782 8.25945Z" fill="#E4761B" stroke="#E4761B" stroke-linecap="round" stroke-linejoin="round"/>
<path d="M6.48828 16.9992L9.39297 15.6786L6.88359 13.8538L6.48828 16.9992Z" fill="#E4761B" stroke="#E4761B" stroke-linecap="round" stroke-linejoin="round"/>
<path d="M12.5984 15.6786L15.5117 16.9992L15.1078 13.8538L12.5984 15.6786Z" fill="#E4761B" stroke="#E4761B" stroke-linecap="round" stroke-linejoin="round"/>
<path d="M15.5117 16.9992L12.5984 15.6786L12.8305 17.4474L12.8047 18.1917L15.5117 16.9992Z" fill="#D7C1B3" stroke="#D7C1B3" stroke-linecap="round" stroke-linejoin="round"/>
<path d="M6.48828 16.9992L9.19531 18.1917L9.17813 17.4474L9.39297 15.6786L6.48828 16.9992Z" fill="#D7C1B3" stroke="#D7C1B3" stroke-linecap="round" stroke-linejoin="round"/>
<path d="M9.23838 12.6853L6.81494 12.021L8.5251 11.2927L9.23838 12.6853Z" fill="#233447" stroke="#233447" stroke-linecap="round" stroke-linejoin="round"/>
<path d="M12.7531 12.6853L13.4664 11.2927L15.1851 12.021L12.7531 12.6853Z" fill="#233447" stroke="#233447" stroke-linecap="round" stroke-linejoin="round"/>
<path d="M6.48828 16.9992L6.90078 13.7499L4.21094 13.8219L6.48828 16.9992Z" fill="#CD6116" stroke="#CD6116" stroke-linecap="round" stroke-linejoin="round"/>
<path d="M15.0991 13.7499L15.5116 16.9992L17.789 13.8219L15.0991 13.7499Z" fill="#CD6116" stroke="#CD6116" stroke-linecap="round" stroke-linejoin="round"/>
<path d="M17.1446 10.1722L12.3149 10.3723L12.7618 12.6853L13.4751 11.2927L15.1938 12.021L17.1446 10.1722Z" fill="#CD6116"/>
<path d="M6.81484 12.021L8.53359 11.2927L9.23828 12.6853L9.69375 10.3723L4.85547 10.1722L6.81484 12.021Z" fill="#CD6116"/>
<path d="M4.85547 10.1722L6.88359 13.8538L6.81484 12.021L4.85547 10.1722Z" fill="#E4751F" stroke="#E4751F" stroke-linecap="round" stroke-linejoin="round"/>
<path d="M15.1938 12.021L15.1079 13.8538L17.1446 10.1722L15.1938 12.021Z" fill="#E4751F" stroke="#E4751F" stroke-linecap="round" stroke-linejoin="round"/>
<path d="M9.69375 10.3724L9.23828 12.6854L9.80547 15.4145L9.93437 11.821L9.69375 10.3724Z" fill="#E4751F" stroke="#E4751F" stroke-linecap="round" stroke-linejoin="round"/>
<path d="M12.3149 10.3724L12.0828 11.813L12.1859 15.4145L12.7617 12.6854L12.3149 10.3724Z" fill="#E4751F" stroke="#E4751F" stroke-linecap="round" stroke-linejoin="round"/>
<path d="M12.7618 12.6854L12.186 15.4145L12.5985 15.6786L15.1079 13.8539L15.1938 12.0211L12.7618 12.6854Z" fill="#F6851B" stroke="#F6851B" stroke-linecap="round" stroke-linejoin="round"/>
<path d="M6.81494 12.0211L6.88369 13.8539L9.39307 15.6786L9.80557 15.4145L9.23838 12.6854L6.81494 12.0211Z" fill="#F6851B" stroke="#F6851B" stroke-linecap="round" stroke-linejoin="round"/>
<path d="M12.8047 18.1917L12.8305 17.4474L12.6156 17.2713H9.37578L9.17813 17.4474L9.19531 18.1917L6.48828 16.9992L7.43359 17.7195L9.35 18.96H12.6414L14.5664 17.7195L15.5117 16.9992L12.8047 18.1917Z" fill="#C0AD9E" stroke="#C0AD9E" stroke-linecap="round" stroke-linejoin="round"/>
<path d="M12.5985 15.6786L12.186 15.4145H9.80557L9.39307 15.6786L9.17822 17.4474L9.37588 17.2713H12.6157L12.8306 17.4474L12.5985 15.6786Z" fill="#161616" stroke="#161616" stroke-linecap="round" stroke-linejoin="round"/>
<path d="M21.2266 6.33865L21.957 3.07327L20.8656 0.0399971L12.5984 5.7544L15.7781 8.25946L20.2727 9.48397L21.2695 8.40352L20.8399 8.1154L21.5274 7.53115L20.9945 7.14699L21.682 6.65878L21.2266 6.33865Z" fill="#763D16" stroke="#763D16" stroke-linecap="round" stroke-linejoin="round"/>
<path d="M0.0429688 3.07327L0.773438 6.33865L0.309375 6.65878L0.996875 7.14699L0.472656 7.53115L1.16016 8.1154L0.730469 8.40352L1.71875 9.48397L6.21328 8.25946L9.39297 5.7544L1.12578 0.0399971L0.0429688 3.07327Z" fill="#763D16" stroke="#763D16" stroke-linecap="round" stroke-linejoin="round"/>
<path d="M20.2728 9.48404L15.7782 8.25952L17.1446 10.1723L15.1079 13.8539L17.7892 13.8219H21.7853L20.2728 9.48404Z" fill="#F6851B" stroke="#F6851B" stroke-linecap="round" stroke-linejoin="round"/>
<path d="M6.21329 8.25952L1.71876 9.48404L0.22345 13.8219H4.21095L6.88361 13.8539L4.85548 10.1723L6.21329 8.25952Z" fill="#F6851B" stroke="#F6851B" stroke-linecap="round" stroke-linejoin="round"/>
<path d="M12.3149 10.3724L12.5985 5.75441L13.9048 2.46502H8.104L9.39307 5.75441L9.69385 10.3724L9.79697 11.829L9.80557 15.4145H12.186L12.2032 11.829L12.3149 10.3724Z" fill="#F6851B" stroke="#F6851B" stroke-linecap="round" stroke-linejoin="round"/>
</g>
<defs>
<clipPath id="clip0_213:6617">
<rect width="22" height="19" fill="white"/>
</clipPath>
</defs>
</svg>
