<svg width="36" height="36" viewBox="0 0 36 36" fill="none" xmlns="http://www.w3.org/2000/svg">
<circle cx="18" cy="18" r="17.1818" stroke="#0856CB" stroke-width="1.63636"/>
<path d="M11.6992 12.5859H27.2681C27.623 12.5859 27.9634 12.7291 28.2144 12.984C28.4653 13.239 28.6063 13.5847 28.6063 13.9452C28.6063 14.3057 28.4653 14.6515 28.2144 14.9064C27.9634 15.1613 27.623 15.3046 27.2681 15.3046H8.882C8.58127 15.3049 8.28724 15.2144 8.03726 15.0446C7.78728 14.8748 7.59265 14.6333 7.4781 14.3508C7.36355 14.0683 7.33425 13.7577 7.39393 13.4583C7.45361 13.1588 7.59957 12.8842 7.81327 12.6693L12.6913 7.75752C12.8161 7.63185 12.9642 7.5324 13.1269 7.46484C13.2896 7.39728 13.4638 7.36294 13.6396 7.36378C13.8154 7.36463 13.9893 7.40063 14.1514 7.46974C14.3135 7.53886 14.4606 7.63972 14.5843 7.76658C14.708 7.89345 14.8059 8.04382 14.8724 8.20912C14.9389 8.37441 14.9727 8.5514 14.9719 8.72997C14.9711 8.90853 14.9356 9.08519 14.8676 9.24984C14.7995 9.41449 14.7003 9.56392 14.5754 9.68959L11.701 12.5859H11.6992ZM24.3028 23.4008H8.73213C8.37723 23.4008 8.03687 23.2576 7.78592 23.0026C7.53497 22.7477 7.39398 22.402 7.39398 22.0414C7.39398 21.6809 7.53497 21.3352 7.78592 21.0802C8.03687 20.8253 8.37723 20.6821 8.73213 20.6821H27.1201C27.4206 20.6821 27.7144 20.7729 27.9641 20.9428C28.2138 21.1128 28.4082 21.3543 28.5225 21.6367C28.6368 21.9191 28.666 22.2296 28.6062 22.5289C28.5465 22.8281 28.4006 23.1026 28.187 23.3174L23.309 28.2273C23.1849 28.3564 23.0367 28.459 22.8731 28.5292C22.7095 28.5995 22.5338 28.6359 22.3562 28.6365C22.1786 28.6371 22.0027 28.6017 21.8387 28.5325C21.6747 28.4633 21.5259 28.3616 21.401 28.2334C21.276 28.1051 21.1775 27.9529 21.1111 27.7856C21.0446 27.6183 21.0117 27.4392 21.014 27.2588C21.0164 27.0784 21.0542 26.9003 21.125 26.7349C21.1958 26.5695 21.2984 26.42 21.4267 26.2953L24.3028 23.4008Z" fill="#0856CB"/>
</svg>
