<svg width="24" height="24" viewBox="0 0 24 24" fill="none" xmlns="http://www.w3.org/2000/svg">
<circle cx="12" cy="12" r="11" fill="white" stroke="#5C17E6" stroke-width="2"/>
<circle cx="11.9999" cy="12" r="7.90323" fill="white" stroke="#5C17E6" stroke-width="2" stroke-dasharray="10 4"/>
<path fill-rule="evenodd" clip-rule="evenodd" d="M10.037 9.42133C10.0502 9.4745 10.1034 9.50552 10.1566 9.48779L14.587 8.30027C14.6933 8.27368 14.68 8.1186 14.5693 8.10974L9.70467 7.67106C9.63821 7.66663 9.58505 7.72867 9.60277 7.7907L10.037 9.42133ZM10.4799 12.3236L9.83302 9.9087L9.74885 9.5941L9.40327 8.3091C9.37669 8.21161 9.24378 8.21161 9.2172 8.3091L7.97668 12.9395C7.95896 13.0104 8.02099 13.0769 8.09631 13.0592L10.4134 12.4388C10.4621 12.43 10.4932 12.3768 10.4799 12.3236ZM15.504 8.38884C15.6413 8.35339 15.792 8.41543 15.8629 8.53949L17.0192 10.5468C17.0502 10.5999 17.0236 10.6708 16.9616 10.6886L10.9141 12.3015C10.8609 12.3192 10.8078 12.2882 10.7945 12.235L10.1742 9.91755C10.1565 9.86438 10.1875 9.8112 10.2407 9.79791L15.504 8.38884ZM10.6128 12.8243C10.5995 12.7711 10.5463 12.7401 10.4931 12.7578L8.17604 13.3782C8.10516 13.3959 8.07858 13.4889 8.13174 13.5377L11.5343 16.9673C11.6052 17.0382 11.7204 16.9717 11.6982 16.8743L10.6128 12.8243ZM10.9939 12.6206L16.7623 11.0741C16.8553 11.052 16.9218 11.1539 16.8642 11.2292L12.2432 17.0605C12.1945 17.1225 12.097 17.1004 12.0749 17.025L10.9274 12.7402C10.9097 12.687 10.9407 12.6339 10.9939 12.6206Z" fill="#5C17E6"/>
</svg>
