<svg width="24" height="24" viewBox="0 0 24 24" fill="none" xmlns="http://www.w3.org/2000/svg">
<path d="M21.818 6.78818C21.0959 7.09706 20.3101 7.31935 19.5006 7.40593C20.341 6.91088 20.9703 6.12878 21.2705 5.20637C20.4819 5.67152 19.618 5.9977 18.7172 6.17043C18.3406 5.77129 17.8852 5.45332 17.3794 5.23633C16.8735 5.01934 16.328 4.90798 15.7768 4.90919C13.5467 4.90919 11.7532 6.7016 11.7532 8.90117C11.7532 9.21005 11.791 9.51892 11.8523 9.8161C8.51314 9.64294 5.535 8.06112 3.55508 5.63926C3.19431 6.25026 3.00526 6.94596 3.00759 7.65397C3.00759 9.03923 3.71791 10.2607 4.80108 10.9791C4.16275 10.9541 3.53937 10.7802 2.98163 10.4713V10.5204C2.98163 12.4603 4.36451 14.0678 6.20756 14.4375C5.8615 14.5267 5.50551 14.5723 5.14798 14.5732C4.88604 14.5732 4.63825 14.5475 4.38811 14.5124C4.89784 16.0942 6.38218 17.2432 8.14972 17.2806C6.76684 18.3546 5.03471 18.9864 3.1539 18.9864C2.81644 18.9864 2.50494 18.9747 2.18164 18.9373C3.96569 20.0722 6.08248 20.7274 8.3621 20.7274C15.7626 20.7274 19.8121 14.6481 19.8121 9.37151C19.8121 9.19835 19.8121 9.02519 19.8003 8.85203C20.5838 8.28342 21.2705 7.57909 21.818 6.78818Z" fill="white"/>
</svg>
