<svg width="24" height="24" viewBox="0 0 24 24" fill="none" xmlns="http://www.w3.org/2000/svg">
  <path d="M12 23C18.0751 23 23 18.0751 23 12C23 5.92487 18.0751 1 12 1C5.92487 1 1 5.92487 1 12C1 18.0751 5.92487 23 12 23Z" fill="black" stroke="#585757" stroke-width="2" />
  <path d="M10.0581 11.2018L12.0002 9.26043L13.9432 11.2034L15.0726 10.0731L12.0002 7L8.92789 10.0724L10.0581 11.2018Z" fill="#F3BA2F" />
  <path d="M7 12.0003L8.12942 10.87L9.25885 12.0003L8.12942 13.1297L7 12.0003Z" fill="#F3BA2F" />
  <path d="M10.0581 12.798L12.0002 14.7402L13.9432 12.7972L15.0734 13.9258L12.001 16.999L8.92789 13.9282L10.0581 12.798Z" fill="#F3BA2F" />
  <path d="M14.7401 12.0003L15.8695 10.87L16.9989 11.9995L15.8695 13.1305L14.7401 12.0003Z" fill="#F3BA2F" />
  <path d="M13.1462 11.9995L12.0002 10.8527L11.1527 11.7001L11.0548 11.7973L10.8542 11.9979L12.0002 13.1431L13.1462 12.0003V11.9995Z" fill="#F3BA2F" />
</svg>
