<svg width="22" height="22" viewBox="0 0 22 22" fill="none" xmlns="http://www.w3.org/2000/svg">
<circle cx="11" cy="11" r="11" fill="white"/>
<path fill-rule="evenodd" clip-rule="evenodd" d="M8.59548 8.23036C8.61099 8.29242 8.67304 8.32862 8.73508 8.30793L13.9055 6.92206C14.0296 6.89104 14.0141 6.71005 13.8848 6.6997L8.2077 6.18776C8.13015 6.18259 8.0681 6.25499 8.08878 6.32738L8.59548 8.23036ZM9.11233 11.6174L8.35746 8.79915L8.25922 8.432L7.85593 6.93237C7.8249 6.8186 7.66979 6.8186 7.63877 6.93237L6.19106 12.3362C6.17038 12.4189 6.24277 12.4965 6.33066 12.4758L9.03478 11.7519C9.09165 11.7415 9.12784 11.6795 9.11233 11.6174ZM14.9754 7.02535C15.1357 6.98398 15.3115 7.05638 15.3942 7.20117L16.7437 9.5437C16.7799 9.60575 16.7489 9.68849 16.6765 9.70917L9.61889 11.5915C9.55685 11.6122 9.4948 11.576 9.47929 11.5139L8.75543 8.80939C8.73475 8.74734 8.77095 8.68529 8.83299 8.66977L14.9754 7.02535ZM9.26738 12.2017C9.25187 12.1396 9.18982 12.1034 9.12778 12.1241L6.42366 12.8481C6.34094 12.8687 6.30991 12.9773 6.37196 13.0342L10.3428 17.0367C10.4255 17.1194 10.56 17.0419 10.5341 16.9281L9.26738 12.2017ZM9.71212 11.9639L16.444 10.1592C16.5525 10.1334 16.6301 10.2523 16.5629 10.3402L11.1702 17.1454C11.1133 17.2178 10.9995 17.192 10.9737 17.1041L9.63456 12.1036C9.61388 12.0415 9.65007 11.9795 9.71212 11.9639Z" fill="white"/>
<g clip-path="url(#clip0_218:7834)">
<path d="M11.2164 13.4053L11.1265 13.4974L7.00263 11.004L11.1252 4L11.2152 4.3135L11.2164 13.4053Z" fill="#343434"/>
<path d="M11.1251 13.4974V4L15.25 11.004L11.1251 13.4974Z" fill="#8C8C8C"/>
<path d="M11.177 17.5985L11.1266 17.7503L6.99998 11.8033L11.1251 14.2964L11.1755 14.3598L11.177 17.5985Z" fill="#3C3C3B"/>
<path d="M15.25 11.8033L11.1251 17.7501V14.2954L15.25 11.8033Z" fill="#8C8C8C"/>
<path d="M11.1251 9.08439V13.4974L7.00251 11.0041L11.1251 9.08439Z" fill="#141414"/>
<path d="M11.1251 9.08439L15.25 11.0041L11.1251 13.4974V9.08439Z" fill="#393939"/>
</g>
<defs>
<clipPath id="clip0_218:7834">
<rect width="8.25" height="13.75" fill="white" transform="matrix(-1 0 0 1 15.25 4)"/>
</clipPath>
</defs>
</svg>
